<?xml version="1.0" encoding="UTF-8" standalone="no"?>
<svg
   xmlns:dc="http://purl.org/dc/elements/1.1/"
   xmlns:cc="http://creativecommons.org/ns#"
   xmlns:rdf="http://www.w3.org/1999/02/22-rdf-syntax-ns#"
   xmlns:svg="http://www.w3.org/2000/svg"
   xmlns="http://www.w3.org/2000/svg"
   xmlns:sodipodi="http://sodipodi.sourceforge.net/DTD/sodipodi-0.dtd"
   xmlns:inkscape="http://www.inkscape.org/namespaces/inkscape"
   version="1.1"
   x="0px"
   y="0px"
   viewBox="0 0 74.316421 39.25"
   enable-background="new 0 0 100 100"
   xml:space="preserve"
   id="svg6520"
   inkscape:version="0.48.4 r9939"
   width="100%"
   height="100%"
   sodipodi:docname="noun_33282_cc.svg"><metadata
     id="metadata6532"><rdf:RDF><cc:Work
         rdf:about=""><dc:format>image/svg+xml</dc:format><dc:type
           rdf:resource="http://purl.org/dc/dcmitype/StillImage" /><dc:title></dc:title></cc:Work></rdf:RDF></metadata><defs
     id="defs6530" /><sodipodi:namedview
     pagecolor="#ffffff"
     bordercolor="#666666"
     borderopacity="1"
     objecttolerance="10"
     gridtolerance="10"
     guidetolerance="10"
     inkscape:pageopacity="0"
     inkscape:pageshadow="2"
     inkscape:window-width="2560"
     inkscape:window-height="1031"
     id="namedview6528"
     showgrid="false"
     fit-margin-top="0"
     fit-margin-left="0"
     fit-margin-right="0"
     fit-margin-bottom="0"
     inkscape:zoom="1.888"
     inkscape:cx="37.275"
     inkscape:cy="6.975"
     inkscape:window-x="0"
     inkscape:window-y="25"
     inkscape:window-maximized="1"
     inkscape:current-layer="svg6520" /><path
     d="m 74.175,35.575 c -0.9,-0.8 -2.1,-0.5 -3,-0.1 0,-0.1 0,-0.2 0,-0.2 0.1,-0.9 0.3,-2 -0.9,-2.9 l 0,0 c 0,0 0,0 0,0 0,0 -0.3,-0.2 -0.7,-0.6 -0.4,-0.3 -1,-0.8 -1.5,-1.3 -1.1,-0.9 -2.2,-1.8 -2.2,-1.8 l 0,0 0,0 c -0.5,-0.4 -1,-0.6 -1.1,-0.7 -0.5,-0.6 -1.1,-1.1 -1.6,-1.5 0.2,-0.3 0.3,-0.5 0.3,-0.6 0.6,-0.7 1.1,-1.6 1.3,-2.3 0.2,-0.7 0.2,-1.3 0.3,-1.5 0.4,-0.9 0.5,-1.8 0.4,-2.5 l -0.5,0 c 0,0.3 0,0.6 0,0.9 0,0.3 -0.1,0.6 -0.2,0.9 -0.1,0.3 -0.2,0.6 -0.4,0.9 -0.2,0.3 -0.4,0.5 -0.6,0.7 -0.7,0.6 -1.5,0.9 -2,1 -0.4,0.1 -0.8,0.1 -1.3,0.2 -0.3,-0.2 -0.5,-0.3 -0.6,-0.4 0.1,-0.1 0.2,-0.3 0.3,-0.4 0.3,-0.4 0.7,-0.7 1.1,-1 0.2,-0.1 0.3,-0.2 0.5,-0.3 0.2,-0.1 0.3,-0.2 0.5,-0.3 0.3,-0.2 0.6,-0.3 0.9,-0.5 0.5,-0.3 1.3,-0.9 1.8,-1.8 l 0,-0.1 c 0,-0.1 0.1,-0.2 0.1,-0.2 0,0.1 0,0.2 0,0.2 l 0.5,0 c 0,-0.2 0,-0.4 -0.1,-0.6 0,-0.2 -0.1,-0.3 -0.1,-0.5 -0.1,-0.3 -0.1,-0.4 -0.1,-0.5 0,-1 -0.2,-1.9 -0.5,-2.6 -0.3,-0.7 -0.7,-1.1 -0.7,-1.2 -0.2,-0.5 -0.4,-1 -0.7,-1.4 0.5,-0.4 0.8,-0.8 0.9,-0.9 0.7,-0.3 1.3,-0.8 1.7,-1.2 l -0.1,-0.1 0.1,0.1 4.4,-3.6 c 0,0 0,0 0,0 l 0,0 c 1.2,-1 1,-2 0.9,-2.9 0,-0.1 0,-0.2 0,-0.2 0.9,0.4 2,0.8 2.9,0.1 0.1,-0.1 0.1,-0.3 0,-0.4 -0.1,-0.1 -0.3,-0.1 -0.4,0 -0.5,0.4 -1.1,0.3 -1.6,0.1 0.4,-0.1 0.8,-0.3 1.2,-0.6 0.1,-0.1 0.1,-0.3 0,-0.4 -0.1,-0.1 -0.3,-0.1 -0.4,0 -0.7,0.6 -1.3,0.6 -1.9,0.5 0.1,-0.5 0.2,-1.2 0.9,-1.7 0.1,-0.1 0.1,-0.3 0,-0.4 -0.1,-0.1 -0.3,-0.1 -0.4,0 -0.4,0.4 -0.7,0.7 -0.8,1.1 -0.1,-0.6 0,-1.2 0.5,-1.6 0.1,-0.1 0.1,-0.3 0,-0.4 -0.1,-0.1 -0.3,-0.1 -0.4,0 -0.9,0.7 -0.7,1.9 -0.5,2.9 -0.1,0 -0.1,0 -0.2,-0.1 -0.9,-0.3 -1.9,-0.6 -3,0.3 l 0,0 c 0,0 0,0 0,0 l -4.4,3.6 0,0 c -0.5,0.4 -0.8,0.8 -0.9,0.9 -0.9,0.4 -1.6,1.1 -2.1,1.6 0,0 -0.1,-0.1 -0.1,-0.1 -0.3,-0.2 -0.6,-0.3 -0.8,-0.4 -0.2,-0.1 -0.4,-0.1 -0.4,-0.2 -0.7,-0.6 -1.4,-1 -2.1,-1.2 -0.6,-0.2 -1.2,-0.3 -1.3,-0.3 -0.7,-0.4 -1.5,-0.6 -2.2,-0.8 l -0.1,0.5 c 0.2,0 0.5,0.1 0.8,0.2 0.3,0.1 0.5,0.2 0.8,0.3 0.3,0.1 0.5,0.3 0.8,0.5 0.2,0.2 0.5,0.4 0.6,0.6 0.3,0.4 0.5,0.7 0.6,1.1 0.1,0.4 0.2,0.7 0.3,1 0.1,0.6 0.3,1.4 0.6,2.2 0,0.1 0.1,0.2 0.1,0.3 -0.1,0 -0.2,-0.1 -0.3,-0.2 -0.1,-0.1 -0.2,-0.1 -0.3,-0.2 -0.2,-0.1 -0.4,-0.3 -0.6,-0.4 -0.4,-0.3 -0.8,-0.7 -1.1,-1.2 -0.1,-0.2 -0.2,-0.3 -0.3,-0.5 -0.1,-0.2 -0.2,-0.3 -0.3,-0.5 -0.2,-0.3 -0.3,-0.7 -0.4,-0.9 -0.1,-0.3 -0.3,-0.6 -0.5,-1 -0.2,-0.4 -0.5,-0.7 -0.9,-1 l -0.1,-0.1 c -0.1,-0.1 -0.1,-0.1 -0.2,-0.1 0.1,0 0.1,0 0.2,0 l 0.1,-0.5 c -0.4,-0.1 -0.7,-0.1 -0.9,-0.1 -0.2,0 -0.4,0 -0.5,0 -0.4,-0.2 -0.8,-0.2 -1.2,-0.3 -0.4,-0.1 -0.8,-0.1 -1.1,-0.1 -0.3,0 -0.6,0 -0.8,0 -0.2,0 -0.4,0.1 -0.4,0.1 -0.4,-0.1 -0.8,-0.1 -1.2,-0.1 -0.4,0 -0.8,0 -1.1,0.1 -0.7,0.1 -1.1,0.3 -1.3,0.3 -0.2,0 -0.4,0 -0.6,0 -0.2,0 -0.4,0 -0.6,0.1 -0.4,0.1 -0.8,0.1 -1.1,0.2 -0.3,0.1 -0.6,0.2 -0.8,0.3 -0.2,0.1 -0.3,0.2 -0.4,0.2 -0.4,0 -0.8,0.1 -1.2,0.2 -0.4,0.1 -0.7,0.2 -1,0.4 -0.6,0.2 -1,0.5 -1.1,0.6 -0.2,0 -0.4,0.1 -0.5,0.1 -1.1,-0.6 -2.3,-0.8 -2.5,-0.8 -1.4,-0.9 -3.1,-1 -3.4,-1 -0.8,-0.4 -1.6,-0.5 -2.3,-0.5 -0.4,0 -0.7,0 -0.9,0 -0.2,0 -0.4,0 -0.5,0.1 -1.7,-0.4 -3.4,0.1 -3.6,0.2 -0.8,-0.1 -1.6,0.1 -2.3,0.3 -0.4,0.1 -0.6,0.2 -0.9,0.3 -0.2,0.1 -0.4,0.2 -0.4,0.2 -0.9,0.1 -1.7,0.4 -2.3,0.7 -0.6,0.3 -1,0.6 -1.1,0.7 -0.7,0.2 -1.4,0.6 -2,1 -0.7,-0.6 -1.5,-1 -1.6,-1.1 -0.5,-0.6 -1,-1.1 -1.5,-1.4 l 0,0 c 0,0 -1.1,-0.9 -2.2,-1.8 -0.6,-0.4 -1.1,-0.9 -1.5,-1.2 -0.4,-0.3 -0.7,-0.6 -0.7,-0.6 0,0 0,0 0,0 l 0,0 c -1.1,-0.9 -2.1,-0.6 -3,-0.3 -0.1,0 -0.1,0 -0.2,0.1 0.2,-0.9 0.5,-2.1 -0.3,-2.8 -0.1,-0.1 -0.3,-0.1 -0.4,0 -0.1,0.1 -0.1,0.3 0,0.4 0.4,0.4 0.4,0.9 0.3,1.6 -0.1,-0.4 -0.4,-0.7 -0.8,-1.1 -0.1,-0.1 -0.3,-0.1 -0.4,0 -0.1,0.1 -0.1,0.3 0,0.4 0.7,0.6 0.8,1.2 0.8,1.8 -0.5,0 -1.2,0 -1.9,-0.6 -0.1,-0.1 -0.3,-0.1 -0.4,0 -0.1,0.1 -0.1,0.3 0,0.4 0.4,0.4 0.9,0.6 1.3,0.7 -0.6,0.2 -1.2,0.2 -1.7,-0.2 -0.1,-0.1 -0.3,-0.1 -0.4,0 -0.1,0.1 -0.1,0.3 0,0.4 0.9,0.8 2.1,0.5 3,0.1 0,0.1 0,0.2 0,0.2 -0.1,0.9 -0.3,2 0.9,2.9 l 0,0 c 0,0 0,0 0,0 0,0 0.3,0.2 0.7,0.6 0.4,0.3 1,0.8 1.5,1.3 1.1,0.9 2.2,1.8 2.2,1.8 l 0,0 c 0.5,0.4 1,0.6 1.1,0.7 0.5,0.6 1.1,1.1 1.6,1.5 -0.2,0.3 -0.3,0.5 -0.3,0.6 -0.6,0.7 -1.1,1.6 -1.3,2.3 -0.2,0.7 -0.2,1.3 -0.3,1.5 -0.4,0.9 -0.5,1.8 -0.4,2.5 l 0.5,0 c 0,-0.3 0,-0.6 0,-0.9 0,-0.3 0.1,-0.6 0.2,-0.9 0.1,-0.3 0.2,-0.6 0.4,-0.9 0.2,-0.3 0.4,-0.5 0.6,-0.7 0.7,-0.6 1.5,-0.9 2,-1 0.6,-0.1 1.4,-0.2 2.2,-0.4 0.1,0 0.2,-0.1 0.3,-0.1 -0.2,0.3 -0.5,0.7 -0.8,1 -0.3,0.4 -0.7,0.7 -1.1,1 -0.2,0.1 -0.3,0.2 -0.5,0.3 -0.2,0.1 -0.3,0.2 -0.5,0.3 -0.3,0.2 -0.6,0.3 -0.9,0.5 -0.5,0.3 -1.3,0.9 -1.8,1.8 l 0,0.1 c 0,0.1 -0.1,0.2 -0.1,0.2 0,-0.1 0,-0.2 0,-0.2 l -0.5,0 c 0,0.2 0,0.4 0.1,0.6 0,0.2 0.1,0.3 0.1,0.5 0.1,0.3 0.1,0.4 0.1,0.5 0,1 0.2,1.9 0.5,2.6 0.3,0.7 0.7,1.1 0.7,1.2 0.2,0.5 0.4,1 0.7,1.4 -0.5,0.4 -0.8,0.8 -0.9,0.9 -0.7,0.3 -1.3,0.8 -1.7,1.2 l 0.3,0.4 c 0.7,-0.6 1.7,-1.3 2.8,-1.5 0.8,-0.1 1.6,0 2.2,0.1 0.6,0.1 1.5,0.2 2.4,0.1 0.1,0 0.2,0 0.3,-0.1 -0.6,0.6 -1.7,1.4 -2.9,1.6 -0.8,0.1 -1.6,0 -2.2,-0.1 -0.6,-0.1 -1.5,-0.2 -2.4,-0.1 l -0.1,0 c -0.1,0 -0.1,0 -0.2,0 0,0 0.1,-0.1 0.1,-0.1 l 0,-0.8 -4.4,3.6 c 0,0 0,0 0,0 l 0,0 c -1.2,1 -1,2 -0.9,2.9 0,0.1 0,0.2 0,0.2 -0.9,-0.4 -2,-0.8 -2.9,-0.1 -0.1,0.1 -0.1,0.3 0,0.4 0.1,0.1 0.3,0.1 0.4,0 0.5,-0.4 1.1,-0.3 1.6,-0.1 -0.4,0.1 -0.8,0.3 -1.2,0.6 -0.1,0.1 -0.1,0.3 0,0.4 0.1,0.1 0.3,0.1 0.4,0 0.7,-0.6 1.3,-0.6 1.9,-0.5 -0.1,0.5 -0.2,1.2 -0.9,1.7 -0.1,0.1 -0.1,0.3 0,0.4 0.1,0.1 0.3,0.1 0.4,0 0.4,-0.4 0.7,-0.7 0.8,-1.1 0.1,0.6 0,1.2 -0.5,1.6 -0.1,0.1 -0.1,0.3 0,0.4 0.1,0.1 0.3,0.1 0.4,0 0.9,-0.7 0.7,-1.9 0.5,-2.9 0.1,0 0.1,0 0.2,0.1 0.9,0.3 1.9,0.6 3,-0.3 l 0,0 c 0,0 0,0 0,0 l 4.4,-3.6 0,0 c 0.5,-0.4 0.8,-0.8 0.9,-0.9 0.9,-0.4 1.6,-1.1 2.1,-1.6 0,0 0.1,0.1 0.1,0.1 0.3,0.2 0.6,0.3 0.8,0.4 0.2,0.1 0.4,0.1 0.4,0.2 0.7,0.6 1.4,1 2.1,1.2 0.6,0.2 1.2,0.3 1.3,0.3 0.7,0.4 1.5,0.6 2.2,0.8 0.4,0.1 0.7,0.1 0.9,0.1 0.2,0 0.4,0 0.5,0 0.4,0.2 0.8,0.2 1.2,0.3 0.4,0.1 0.8,0.1 1.1,0.1 0.3,0 0.6,0 0.8,0 0.2,0 0.4,-0.1 0.4,-0.1 0.4,0.1 0.8,0.1 1.2,0.1 0.4,0 0.8,0 1.1,-0.1 0.7,-0.1 1.1,-0.3 1.3,-0.3 0.2,0 0.4,0 0.6,0 0.2,0 0.4,0 0.6,-0.1 0.4,-0.1 0.8,-0.1 1.1,-0.2 0.3,-0.1 0.6,-0.2 0.8,-0.3 0.2,-0.1 0.3,-0.2 0.4,-0.2 0.4,0 0.8,-0.1 1.2,-0.2 0.4,-0.1 0.7,-0.2 1,-0.4 0.6,-0.2 1,-0.5 1.1,-0.6 0.2,0 0.4,-0.1 0.5,-0.1 1.1,0.6 2.3,0.8 2.5,0.8 1.4,0.9 3.1,1 3.4,1 0.8,0.4 1.6,0.5 2.3,0.5 0.4,0 0.7,0 0.9,0 0.2,0 0.4,0 0.5,-0.1 1.7,0.4 3.4,-0.1 3.6,-0.2 0.8,0.1 1.6,-0.1 2.3,-0.3 l -0.1,-0.5 c -0.9,0.3 -2.3,0.5 -3.4,0 -0.4,-0.2 -0.7,-0.4 -1,-0.7 -0.3,-0.2 -0.5,-0.5 -0.7,-0.7 -0.2,-0.2 -0.4,-0.5 -0.7,-0.8 -0.3,-0.3 -0.6,-0.6 -0.9,-0.9 l -0.2,-0.2 c 0.4,0 0.9,0 1.4,0.1 0.3,0 0.5,0.1 0.8,0.2 0.3,0.1 0.5,0.2 0.8,0.3 0.7,0.4 1.3,0.9 1.7,1.3 0.4,0.4 1.2,0.9 2.1,1.2 l 0.1,0 c 0.1,0 0.2,0 0.2,0 -0.1,0 -0.1,0 -0.2,0.1 l 0.1,0.5 c 0.4,-0.1 0.6,-0.2 0.9,-0.3 0.2,-0.1 0.4,-0.2 0.4,-0.2 0.9,-0.1 1.7,-0.4 2.3,-0.7 0.6,-0.3 1,-0.6 1.1,-0.7 0.8,-0.2 1.4,-0.6 2,-1 0.7,0.6 1.5,1 1.6,1.1 0.5,0.6 1,1.1 1.5,1.4 l 0.1,-0.1 -0.1,0.1 c 0,0 1.1,0.9 2.2,1.8 0.6,0.4 1.1,0.9 1.5,1.2 0.4,0.3 0.7,0.6 0.7,0.6 0,0 0,0 0,0 l 0,0 c 1.1,0.9 2.1,0.6 3,0.3 0.1,0 0.1,0 0.2,-0.1 -0.2,0.9 -0.5,2.1 0.3,2.8 0.1,0.1 0.3,0.1 0.4,0 0.1,-0.1 0.1,-0.3 0,-0.4 -0.4,-0.4 -0.4,-0.9 -0.3,-1.6 0.1,0.4 0.4,0.7 0.8,1.1 0.1,0.1 0.3,0.1 0.4,0 0.1,-0.1 0.1,-0.3 0,-0.4 -0.8,-0.1 -0.8,-0.7 -0.9,-1.3 0.5,0 1.2,0 1.9,0.6 0.1,0.1 0.3,0.1 0.4,0 0.1,-0.1 0.1,-0.3 0,-0.4 -0.4,-0.4 -0.9,-0.6 -1.3,-0.7 0.6,-0.2 1.2,-0.2 1.7,0.2 0.1,0.1 0.3,0.1 0.4,0 0.1,0 0,-0.2 -0.1,-0.3 z m -4,-29 c -0.1,-0.2 -0.1,-0.4 -0.3,-0.6 0.4,-0.4 0.7,-0.8 0.8,-1.1 0.1,0.6 0,1.2 -0.5,1.7 z m 0.2,-2.7 0.1,0 0,0.1 c -0.1,0.5 -0.2,0.9 -0.9,1.6 -0.1,-0.2 -0.3,-0.4 -0.5,-0.6 -0.2,-0.2 -0.3,-0.4 -0.5,-0.6 0.8,-0.5 1.3,-0.5 1.8,-0.5 z m -0.9,-0.5 c -0.4,0.1 -0.8,0.3 -1.3,0.6 -0.2,-0.2 -0.4,-0.3 -0.5,-0.4 0.7,-0.4 1.3,-0.3 1.8,-0.2 z m -65.2,3.3 c -0.5,-0.5 -0.6,-1.1 -0.6,-1.7 0.2,0.3 0.4,0.7 0.8,1.1 0,0.2 -0.1,0.4 -0.2,0.6 z m 1.1,-1.7 c -0.2,0.2 -0.3,0.4 -0.5,0.6 -0.6,-0.6 -0.7,-1.1 -0.9,-1.6 l 0,-0.1 0.1,0 c 0.5,0 1,0 1.7,0.6 -0.1,0.1 -0.3,0.3 -0.4,0.5 z m 0.9,-0.9 c -0.5,-0.4 -0.9,-0.5 -1.2,-0.6 0.6,-0.2 1.1,-0.2 1.8,0.2 -0.3,0.1 -0.5,0.2 -0.6,0.4 z m -1.9,28.9 c 0.1,0.2 0.1,0.4 0.3,0.6 -0.4,0.4 -0.7,0.8 -0.8,1.1 -0.1,-0.6 0,-1.2 0.5,-1.7 z m -0.2,2.7 -0.1,0 0,-0.1 c 0.1,-0.5 0.2,-0.9 0.9,-1.6 0.1,0.2 0.3,0.4 0.5,0.6 0.2,0.2 0.3,0.4 0.5,0.6 -0.8,0.5 -1.3,0.5 -1.8,0.5 z m 0.9,0.5 c 0.4,-0.1 0.8,-0.3 1.3,-0.6 0.2,0.2 0.4,0.3 0.5,0.4 -0.7,0.4 -1.3,0.3 -1.8,0.2 z m 56.7,-11.5 c 0.6,-0.1 1.5,-0.3 2.3,-1 0.1,-0.1 0.2,-0.2 0.3,-0.3 -0.1,0.3 -0.2,0.5 -0.3,0.9 -0.1,0.3 -0.3,0.6 -0.5,0.9 -0.3,0.4 -0.7,0.8 -1.1,1 -0.1,0 -0.2,-0.1 -0.2,-0.1 -0.4,-0.5 -0.9,-0.9 -1.3,-1.2 0.3,-0.2 0.6,-0.2 0.8,-0.2 z m -1.6,-2.6 c -0.1,0.2 -0.1,0.4 -0.1,0.5 0,0.1 -0.1,0.3 -0.1,0.3 -0.2,0.2 -0.4,0.4 -0.6,0.7 -0.9,-1 -2.1,-1.6 -2.3,-1.7 -0.9,-1.2 -2.3,-1.9 -2.5,-2 0,0 0,0 0,0 1.1,-0.7 1.8,-1.6 1.9,-1.7 1.4,-0.7 2.4,-1.9 2.6,-2.1 0.1,-0.1 0.3,-0.1 0.4,-0.2 l -0.1,-0.2 c 0,0 0,0 0,0 0.1,0.1 0.2,0.2 0.2,0.2 0.2,0.6 0.4,1.1 0.6,1.5 0,0.1 0.1,0.2 0.1,0.3 0,0.1 0.1,0.2 0.1,0.2 0.1,0.1 0.1,0.2 0.1,0.3 0,0.6 0,1.1 0,1.5 0,0.2 0,0.5 0.1,0.6 0,0.2 0,0.3 0,0.3 -0.1,0.6 -0.3,1.1 -0.4,1.5 z m -3.8,5.1 c 0.7,0.8 1.6,1.4 2.1,1.7 -0.5,-0.1 -1,-0.2 -1.3,-0.3 -0.6,-0.2 -1.4,-0.5 -2.2,-0.7 -0.1,0 -0.2,0 -0.3,0 0.4,-0.3 1,-0.6 1.7,-0.7 z m -0.4,-1.6 c -0.3,-0.8 -0.3,-1.6 -0.4,-2.2 0,-0.6 -0.1,-1.5 -0.4,-2.3 0,-0.1 -0.1,-0.2 -0.1,-0.3 0.7,0.5 1.8,1.4 2.2,2.5 0.3,0.8 0.3,1.6 0.4,2.2 0,0.6 0.1,1.5 0.4,2.3 0,0.1 0.1,0.2 0.1,0.3 -0.7,-0.5 -1.8,-1.3 -2.2,-2.5 z m -3,-1.9 c 0,0.1 0.1,0.2 0.1,0.3 -0.5,-0.4 -1.2,-1 -1.7,-1.7 0,0 0,0 0,-0.1 0.5,-0.2 0.8,-0.5 1.2,-0.8 0,0.7 0.1,1.5 0.4,2.3 z m -10.9,4.1 c -1.1,-0.7 -2.4,-0.9 -2.7,-1 -0.3,-0.2 -0.6,-0.4 -0.9,-0.5 -0.1,-0.1 -0.2,-0.1 -0.3,-0.2 0.6,-0.2 1.2,-0.4 1.9,-0.4 0.8,0 1.6,0.3 2.1,0.4 0.6,0.2 1.4,0.4 2.4,0.4 0.1,0 0.2,0 0.3,0 -0.4,0.3 -0.8,0.6 -1.4,0.9 -0.4,0.2 -0.9,0.4 -1.4,0.4 z m -6,2.1 c -0.1,0 -0.1,-0.1 -0.2,-0.1 l 0,0 c -0.9,-0.3 -2,-1 -2.5,-2 -0.4,-0.7 -0.6,-1.5 -0.7,-2.1 -0.1,-0.6 -0.3,-1.5 -0.7,-2.2 0,-0.1 -0.1,-0.2 -0.2,-0.3 0.8,0.4 1.9,1.1 2.5,2.1 0.4,0.7 0.6,1.5 0.7,2.1 0.1,0.6 0.4,1.4 0.9,2.2 l 0.1,0.1 c 0,0.1 0,0.1 0.1,0.2 z m -22.2,-7.6 c 0.2,0.5 0.5,1.1 0.7,1.8 -0.9,0.6 -1.5,1.3 -1.6,1.5 0,0 0,0 -0.1,0 0,-0.4 0.1,-0.7 0.2,-0.9 0.2,-0.6 0.5,-1.4 0.7,-2.1 0,-0.1 0.1,-0.2 0.1,-0.3 z m 3,1.3 c 0.8,-0.1 1.6,0 2.2,0.1 0.6,0.1 1.5,0.2 2.3,0.1 0.1,0 0.2,0 0.3,-0.1 -0.6,0.6 -1.7,1.4 -2.9,1.6 -0.8,0.1 -1.6,0 -2.2,-0.1 -0.6,-0.1 -1.5,-0.2 -2.4,-0.1 -0.1,0 -0.2,0 -0.3,0.1 0.8,-0.6 1.8,-1.5 3,-1.6 z m -0.1,-7.2 c 0,0.1 0.1,0.2 0.1,0.3 -0.4,-0.3 -0.9,-0.7 -1.3,-1.2 0,-0.1 0.1,-0.1 0.1,-0.2 0.3,-0.4 0.5,-0.7 0.5,-0.8 0.1,0 0.1,-0.1 0.2,-0.1 0,0.6 0.1,1.3 0.4,2 z m -3.4,-4.9 c 0.3,-0.2 0.6,-0.4 0.9,-0.5 0.3,-0.1 0.6,-0.2 0.9,-0.3 0.9,-0.1 1.7,0.1 2.2,0.3 0.6,0.2 1.4,0.5 2.2,0.7 0.1,0 0.2,0 0.3,0 -0.7,0.4 -1.8,0.9 -2.9,0.9 -0.8,0 -1.6,-0.1 -2.1,-0.2 -0.6,-0.1 -1.5,-0.1 -2.5,0.3 -0.1,0 -0.2,0.1 -0.3,0.2 0.4,-0.5 0.8,-1 1.3,-1.4 z m 9.9,10.4 c -0.2,-0.2 -0.4,-0.5 -0.6,-0.7 -0.2,-0.3 -0.3,-0.5 -0.4,-0.8 0,-0.1 0,-0.2 -0.1,-0.2 -0.2,-0.7 -0.2,-1.4 -0.2,-1.9 0,-0.6 -0.1,-1.5 -0.4,-2.3 0,-0.1 -0.1,-0.2 -0.1,-0.3 0.7,0.5 1.8,1.4 2.2,2.5 0,0.1 0,0.2 0.1,0.2 0.2,0.7 0.2,1.4 0.2,1.9 0,0.6 0.1,1.5 0.4,2.4 0,0.1 0.1,0.2 0.1,0.3 -0.3,-0.3 -0.8,-0.7 -1.2,-1.1 z m 1.2,-1.6 c 0,-0.6 0,-1.5 -0.3,-2.3 0,0 0,-0.1 0,-0.1 0,-0.1 -0.1,-0.1 -0.1,-0.2 0.1,0 0.1,0.1 0.2,0.1 0.2,0.1 0.4,0.3 0.6,0.5 0.2,0.2 0.4,0.3 0.5,0.5 0.3,0.4 0.7,0.8 0.8,1.4 0.3,0.8 0.4,1.6 0.4,2.1 0,0.6 0.2,1.5 0.6,2.3 0,0.1 0.1,0.2 0.2,0.3 -0.8,-0.4 -1.9,-1.3 -2.4,-2.4 -0.4,-0.8 -0.5,-1.7 -0.5,-2.2 z m 2.6,1.9 c 0,-0.6 -0.2,-1.5 -0.5,-2.3 0,-0.1 -0.1,-0.2 -0.1,-0.3 0.7,0.5 1.8,1.3 2.2,2.3 0.3,0.8 0.5,1.6 0.5,2.1 0.1,0.6 0.2,1.5 0.7,2.3 0,0.1 0.1,0.2 0.2,0.3 -0.8,-0.4 -2,-1.2 -2.5,-2.3 -0.3,-0.7 -0.4,-1.5 -0.5,-2.1 z m -1.1,-3.5 c -0.2,-0.3 -0.4,-0.5 -0.7,-0.8 -0.2,-0.2 -0.5,-0.4 -0.7,-0.6 0.8,-0.1 1.6,0 2.2,0.2 0.6,0.1 1.5,0.3 2.3,0.2 0.1,0 0.2,0 0.3,0 -0.3,0.3 -0.8,0.6 -1.3,0.9 -0.4,0.2 -0.9,0.4 -1.4,0.5 -0.3,-0.1 -0.6,-0.3 -0.7,-0.4 z m 3.1,-1.4 c -0.8,0.1 -1.6,-0.1 -2.2,-0.2 -0.6,-0.1 -1.5,-0.3 -2.4,-0.2 -0.1,0 -0.2,0 -0.3,0.1 0.7,-0.6 1.8,-1.4 3,-1.5 0.8,-0.1 1.7,0.1 2.2,0.2 0.6,0.2 1.4,0.4 2.3,0.3 0.1,0 0.2,0 0.3,0 -0.3,0.3 -0.8,0.6 -1.3,0.8 -0.4,0.3 -1,0.5 -1.6,0.5 z m 2.7,-1.8 c -0.8,0 -1.6,-0.2 -2.2,-0.3 -0.6,-0.2 -1.4,-0.3 -2.4,-0.3 -0.1,0 -0.2,0 -0.3,0 0.7,-0.6 1.9,-1.4 3.1,-1.4 0.8,0 1.7,0.2 2.2,0.3 0.6,0.2 1.4,0.4 2.3,0.5 0.1,0 0.2,0 0.3,0 -0.4,0.3 -0.8,0.5 -1.3,0.8 -0.6,0.2 -1.1,0.4 -1.7,0.4 z m 2.7,-1.7 c -0.8,0 -1.6,-0.3 -2.1,-0.4 -0.6,-0.2 -1.4,-0.4 -2.4,-0.4 -0.1,0 -0.2,0 -0.3,0 0.4,-0.3 0.8,-0.6 1.4,-0.9 0.4,-0.2 0.9,-0.4 1.4,-0.4 1.2,0.7 2.4,0.9 2.7,1 0.3,0.2 0.6,0.4 0.9,0.5 0.1,0.1 0.2,0.1 0.3,0.2 -0.1,0.1 -0.3,0.1 -0.4,0.2 -0.5,0.1 -1,0.2 -1.5,0.2 z m -5,-1.3 c -0.5,0.4 -0.8,0.7 -0.9,0.8 -0.7,0.3 -1.4,0.7 -1.9,1.1 -0.5,0.4 -0.8,0.7 -0.9,0.8 -0.9,0.4 -1.7,1.1 -2.2,1.5 -0.1,-0.1 -0.2,-0.1 -0.2,-0.1 -1,-1.2 -2.3,-2 -2.6,-2.1 -0.7,-0.9 -1.6,-1.5 -2.2,-1.8 0.5,-0.2 0.9,-0.4 1.3,-0.5 0.5,-0.2 0.8,-0.5 0.9,-0.5 0.6,-0.1 1.3,-0.2 1.8,-0.4 0.6,-0.2 1,-0.3 1,-0.4 0.7,0.1 1.3,0 1.9,-0.1 0.5,-0.1 0.9,-0.2 1,-0.2 0.2,0 0.3,0.1 0.5,0.1 0.2,0 0.3,0.1 0.4,0.1 0.3,0 0.6,0.1 0.8,0.1 0.3,0 0.5,0 0.7,0 0.2,0 0.3,0 0.4,0 0.6,0.3 1.3,0.5 1.8,0.6 0,0 0.1,0 0.1,0 -0.6,0.3 -1.3,0.7 -1.7,1 z m -11,0.4 -0.3,0.2 c 0.1,-0.1 0.1,-0.1 0.2,-0.1 0,-0.1 0.1,-0.1 0.1,-0.1 z m -0.4,0.2 c 0.2,0.3 0.3,0.5 0.4,0.8 0.3,0.8 0.3,1.6 0.4,2.2 0,0.6 0.1,1.5 0.4,2.3 0,0.1 0.1,0.2 0.1,0.3 -0.7,-0.5 -1.8,-1.4 -2.2,-2.5 -0.3,-0.8 -0.3,-1.6 -0.4,-2.1 0.3,-0.2 0.5,-0.4 0.7,-0.5 0.3,-0.2 0.5,-0.3 0.6,-0.5 z m 1,0.7 c 0,-0.1 -0.1,-0.2 -0.1,-0.3 0.7,0.5 1.8,1.4 2.2,2.5 0.3,0.8 0.3,1.6 0.3,2.2 0,0.6 0.1,1.5 0.3,2.3 l 0,0.1 c 0,0.1 0.1,0.1 0.1,0.2 -0.1,0 -0.1,-0.1 -0.2,-0.1 l 0,0 c -0.4,-0.3 -0.8,-0.6 -1.1,-1 -0.4,-0.4 -0.7,-0.9 -0.9,-1.4 -0.3,-0.8 -0.3,-1.6 -0.3,-2.2 0,-0.5 0,-1.4 -0.3,-2.3 z m 2.3,7.3 c -0.6,-0.1 -1.3,-0.2 -2,-0.1 -0.1,0 -0.2,0 -0.3,0.1 0.3,-0.3 0.7,-0.7 1.2,-1 0.4,0.4 0.8,0.7 1.1,1 z m -1.9,0.4 c 0.8,-0.1 1.6,0 2.2,0.1 0.2,0 0.5,0.1 0.8,0.1 0.2,0.3 0.5,0.6 0.8,0.8 -0.5,0.4 -1.2,0.7 -1.8,0.7 -0.8,0.1 -1.6,0 -2.2,-0.1 -0.6,-0.1 -1.5,-0.2 -2.4,-0.1 -0.1,0 -0.2,0 -0.3,0.1 0.6,-0.6 1.7,-1.4 2.9,-1.6 z m 0.8,4 c 1.4,-0.7 2.4,-1.9 2.5,-2 0.3,-0.1 0.6,-0.3 0.9,-0.5 0.7,0.6 1.4,0.9 1.5,0.9 1.1,1.2 2.6,1.8 2.8,1.9 1.1,1.2 2.6,1.7 2.9,1.8 0.2,0.2 0.5,0.4 0.8,0.6 -0.1,0 -0.2,0.1 -0.4,0.1 -0.5,0.2 -0.9,0.3 -1,0.4 -0.3,0 -0.7,0 -1,0 -0.2,0 -0.3,0 -0.5,0.1 -0.1,0 -0.1,0 -0.2,0 -0.1,0 -0.1,0 -0.2,0 -0.5,0.1 -0.9,0.2 -1,0.2 -1.3,-0.3 -2.7,-0.2 -2.9,-0.1 -0.6,-0.2 -1.2,-0.4 -1.8,-0.5 -0.3,-0.1 -0.5,-0.1 -0.7,-0.1 -0.2,0 -0.3,0 -0.4,0 -0.6,-0.4 -1.2,-0.6 -1.7,-0.8 -0.2,-0.1 -0.5,-0.1 -0.6,-0.2 -0.2,0 -0.3,-0.1 -0.3,-0.1 -0.1,-0.1 -0.2,-0.1 -0.3,-0.2 0.9,-0.7 1.5,-1.4 1.6,-1.5 z m 10.2,0.7 c -0.4,-0.7 -0.5,-1.6 -0.6,-2.1 -0.1,-0.6 -0.2,-1.5 -0.6,-2.3 0,-0.1 -0.1,-0.2 -0.1,-0.3 0.8,0.4 1.8,1.2 2.4,2.2 0.4,0.7 0.5,1.5 0.6,2.1 0.1,0.6 0.3,1.5 0.8,2.3 0.1,0.1 0.1,0.2 0.2,0.3 -1,-0.4 -2.2,-1.1 -2.7,-2.2 z m 3.3,-2.2 c -1.1,-1 -2.5,-1.6 -2.7,-1.6 -1,-1.1 -2.4,-1.7 -2.6,-1.8 -0.3,-0.3 -0.6,-0.6 -0.9,-0.9 0.2,-0.2 0.3,-0.3 0.3,-0.4 0.7,-0.3 1.3,-0.7 1.7,-1.1 0.5,-0.4 0.8,-0.7 0.8,-0.8 0.7,-0.3 1.3,-0.7 1.8,-1 0.5,-0.4 0.8,-0.6 0.9,-0.7 1.4,-0.5 2.5,-1.4 2.7,-1.6 0.3,-0.1 0.7,-0.2 1,-0.3 0.1,0 0.1,-0.1 0.2,-0.1 0.5,0.2 0.9,0.3 1,0.3 1.1,1 2.5,1.4 2.8,1.5 1.1,1 2.5,1.6 2.7,1.6 1,1.1 2.4,1.7 2.6,1.8 0.3,0.3 0.6,0.6 0.9,0.9 -0.2,0.2 -0.3,0.3 -0.3,0.4 -0.7,0.3 -1.3,0.7 -1.7,1.1 -0.5,0.4 -0.8,0.7 -0.8,0.8 -0.7,0.3 -1.3,0.7 -1.8,1 -0.5,0.4 -0.8,0.6 -0.9,0.7 -1.4,0.5 -2.5,1.4 -2.7,1.6 -0.3,0.1 -0.7,0.2 -1,0.3 -0.1,0 -0.1,0.1 -0.2,0.1 -0.5,-0.2 -0.9,-0.3 -1,-0.3 -1.1,-0.9 -2.5,-1.4 -2.8,-1.5 z m 10.3,-10.6 c 0.4,0.7 0.5,1.6 0.6,2.1 0.1,0.6 0.2,1.5 0.6,2.3 0,0.1 0.1,0.2 0.1,0.3 -0.8,-0.4 -1.8,-1.2 -2.4,-2.2 -0.4,-0.7 -0.5,-1.5 -0.6,-2.1 -0.1,-0.6 -0.3,-1.5 -0.8,-2.3 -0.1,-0.1 -0.1,-0.2 -0.2,-0.3 1,0.4 2.2,1.1 2.7,2.2 z m 13.8,0.9 c 0.1,0 0.2,0 0.3,0.1 0.3,0.3 0.5,0.6 0.7,0.9 0.1,0.1 0.1,0.1 0.2,0.2 -0.5,0.3 -1,0.5 -1.5,0.5 -0.8,0.1 -1.6,0 -2.2,-0.1 -0.6,-0.1 -1.5,-0.2 -2.3,-0.1 -0.1,0 -0.2,0 -0.3,0.1 0.6,-0.6 1.7,-1.4 2.9,-1.6 0.8,-0.2 1.7,-0.1 2.2,0 z m 0,-0.3 c 0,0 0,0 0,0 0,0 0,0 0,0 l 0,0 z m -4.7,2.3 c 0.8,-0.1 1.6,0 2.2,0.1 0.6,0.1 1.5,0.2 2.4,0.1 0.1,0 0.2,0 0.3,-0.1 -0.7,0.6 -1.7,1.5 -2.9,1.6 -0.8,0.1 -1.6,0 -2.2,-0.1 -0.6,-0.1 -1.5,-0.2 -2.3,-0.1 0,0 -0.1,0 -0.1,0 -0.1,0 -0.1,0 -0.2,0 0,0 0.1,-0.1 0.1,-0.1 0.6,-0.6 1.6,-1.3 2.7,-1.4 z m -0.6,3.8 c -0.1,0 -0.2,0 -0.2,0 -0.7,0.1 -1.4,0 -1.9,-0.2 -0.6,-0.1 -1.5,-0.3 -2.4,-0.2 -0.1,0 -0.2,0 -0.3,0 0.7,-0.6 1.7,-1.4 2.9,-1.5 0.1,0 0.2,0 0.2,0 0.7,-0.1 1.4,0 1.9,0.2 0.6,0.1 1.5,0.2 2.3,0.1 0.1,0 0.2,0 0.3,-0.1 -0.6,0.8 -1.6,1.6 -2.8,1.7 z m -2.4,-2.9 c 0,-0.1 0,-0.2 -0.1,-0.2 0,-0.1 -0.1,-0.2 -0.1,-0.3 0.1,0.1 0.3,0.2 0.5,0.3 -0.1,0.1 -0.2,0.1 -0.3,0.2 z m -1,1 c -0.4,0.2 -0.7,0.4 -1,0.6 -0.1,-0.6 -0.2,-1.1 -0.2,-1.5 0,-0.6 -0.2,-1.5 -0.6,-2.3 0,-0.1 -0.1,-0.2 -0.2,-0.3 0.8,0.4 1.9,1.3 2.4,2.4 0.1,0.2 0.1,0.3 0.1,0.5 -0.2,0.3 -0.4,0.6 -0.5,0.6 z m -1.7,-0.8 c 0,0.5 0.1,1.1 0.3,1.8 -0.1,0.1 -0.3,0.2 -0.4,0.3 -0.6,-0.5 -1.2,-1.1 -1.6,-1.9 -0.3,-0.8 -0.5,-1.6 -0.5,-2.1 -0.1,-0.6 -0.2,-1.5 -0.7,-2.3 0,-0.1 -0.1,-0.2 -0.2,-0.3 0.8,0.4 2,1.2 2.5,2.3 0.4,0.8 0.5,1.6 0.6,2.2 z m -2.9,8.7 c -0.8,0 -1.7,-0.2 -2.2,-0.3 -0.6,-0.2 -1.4,-0.4 -2.3,-0.5 -0.1,0 -0.2,0 -0.3,0 0.4,-0.3 0.8,-0.5 1.3,-0.8 0.5,-0.2 1.1,-0.4 1.7,-0.4 0.8,0 1.6,0.2 2.2,0.3 0.6,0.2 1.4,0.3 2.4,0.3 0.1,0 0.2,0 0.3,0 -0.7,0.5 -1.9,1.3 -3.1,1.4 z m 2.7,-1.9 c -0.8,0.1 -1.7,-0.1 -2.2,-0.2 -0.6,-0.2 -1.4,-0.4 -2.3,-0.3 -0.1,0 -0.2,0 -0.3,0 0.3,-0.3 0.8,-0.6 1.3,-0.8 0.5,-0.3 1.1,-0.5 1.7,-0.5 0.8,-0.1 1.6,0.1 2.2,0.2 0.6,0.1 1.5,0.3 2.4,0.2 0.1,0 0.2,0 0.3,-0.1 -0.7,0.6 -1.8,1.4 -3.1,1.5 z m 2.7,-2 c -0.8,0.1 -1.7,0 -2.2,-0.2 -0.6,-0.1 -1.5,-0.3 -2.3,-0.2 -0.1,0 -0.2,0 -0.3,0 0.3,-0.3 0.8,-0.6 1.3,-0.9 0.5,-0.3 1.1,-0.5 1.7,-0.6 0.8,-0.1 1.6,0 2.2,0.2 0.6,0.1 1.5,0.3 2.4,0.1 l 0.1,0 c 0.1,0 0.1,0 0.2,0 0,0 -0.1,0.1 -0.1,0.1 l 0,0 c -0.9,0.6 -1.9,1.4 -3,1.5 z m 4,-2 c 0.1,0 0.1,-0.1 0.2,-0.1 0.3,0.3 0.5,0.7 0.7,1.1 0.3,0.8 0.3,1.6 0.3,2.2 0,0.6 0.1,1.5 0.4,2.3 0,0.1 0.1,0.2 0.1,0.3 -0.7,-0.5 -1.8,-1.4 -2.2,-2.5 -0.3,-0.8 -0.3,-1.6 -0.3,-2.2 0,-0.1 0,-0.2 0,-0.3 0.4,-0.3 0.7,-0.7 0.8,-0.8 z m 10.1,-4.2 c 0,-0.1 0,-0.2 0,-0.4 0.2,0.5 0.5,1.1 0.5,1.8 0.1,0.7 0,1.4 -0.3,2 0,0.1 -0.1,0.2 -0.1,0.2 -0.2,0.3 -0.5,0.6 -0.7,0.9 -0.3,0.2 -0.5,0.4 -0.7,0.5 -0.5,0.3 -1.2,0.7 -1.9,1.1 -0.1,0.1 -0.2,0.1 -0.2,0.2 0.1,-0.3 0.2,-0.8 0.4,-1.2 0.2,-0.4 0.4,-0.9 0.7,-1.3 0,-0.1 0.1,-0.1 0.1,-0.2 0.2,-0.3 0.4,-0.5 0.6,-0.8 0.2,-0.3 0.4,-0.5 0.6,-0.7 0.4,-0.3 0.9,-1.1 1,-2.1 z m -0.5,-0.2 c -0.1,0.9 -0.5,1.7 -0.9,2.1 -0.4,0.5 -0.9,1.1 -1.4,1.7 l 0,0.1 c 0,0.1 -0.1,0.1 -0.1,0.2 0,-0.1 0,-0.1 0,-0.2 0,-0.4 -0.1,-0.8 -0.1,-1.2 0,-0.4 0.1,-0.9 0.2,-1.4 0.2,-0.7 0.5,-1.5 0.7,-2 0.2,-0.6 0.4,-1.5 0.2,-2.5 0,-0.1 -0.1,-0.2 -0.1,-0.4 0.4,0.4 0.8,0.9 1.1,1.5 0.3,0.8 0.5,1.5 0.4,2.1 z m -0.7,-3.4 c 0.1,0 0.2,0 0.3,0 0,0 -0.1,0.1 -0.2,0.2 -0.1,-0.1 -0.1,-0.2 -0.1,-0.2 z m 0.4,-4.3 c 0.1,0 0.2,0 0.2,0 l -0.4,-0.5 c -0.1,0 -0.2,0 -0.2,0 0,0 0.1,-0.1 0.1,-0.1 l -0.1,-0.2 0.1,0.2 c 0.1,-0.1 0.1,-0.1 0.2,-0.2 0.1,0.1 0.2,0.1 0.3,0.2 -0.1,0 -0.2,0 -0.3,0 l -0.1,0 0.4,0.5 c 0.2,0 0.6,0 0.6,0 0.2,0.2 0.3,0.4 0.5,0.6 0.4,0.5 0.6,0.9 0.8,1.2 -0.1,0 -0.2,0 -0.2,0 -0.1,0 -0.2,0 -0.2,0 l 0,0 c -0.7,0.1 -1.5,0 -2,-0.1 -0.6,-0.1 -1.5,-0.2 -2.4,-0.1 -0.1,0 -0.2,0 -0.3,0.1 0.8,-0.7 1.8,-1.5 3,-1.6 z m -2.5,2 c 0.8,-0.1 1.6,0 2.2,0.1 0.6,0.1 1.5,0.2 2.4,0.1 l 0.1,0 c 0.1,0 0.1,0 0.2,0 0,0 -0.1,0.1 -0.1,0.1 l 0,0 c -0.7,0.6 -1.7,1.3 -2.8,1.5 -0.1,0 -0.2,0 -0.3,0 -0.4,-0.4 -0.8,-0.7 -0.9,-0.7 -0.3,-0.4 -0.6,-0.7 -0.9,-1 0,-0.1 0,-0.1 0.1,-0.1 z m -0.1,0.8 c 0.5,0.5 0.8,1.1 0.9,1.7 0.2,0.9 0,1.7 -0.2,2.2 -0.2,0.6 -0.5,1.4 -0.7,2.1 0,0.1 0,0.2 -0.1,0.3 -0.3,-0.7 -0.8,-1.6 -0.8,-2.7 0,-0.8 0,-1.6 0,-2.1 0,-0.3 0,-0.7 0,-1.1 -0.1,-0.4 -0.2,-0.9 -0.4,-1.3 -0.1,-0.1 -0.1,-0.2 -0.2,-0.3 0.5,0.4 1.1,0.7 1.5,1.2 z m -3.4,-0.3 c -0.1,-0.3 -0.1,-0.7 -0.3,-1.1 -0.2,-0.4 -0.4,-0.8 -0.7,-1.2 -0.1,-0.1 -0.2,-0.2 -0.2,-0.3 0.5,0.2 1.1,0.4 1.6,0.8 0.5,0.4 1,0.9 1.3,1.4 0.4,0.8 0.5,1.6 0.4,2.2 0,0.6 -0.1,1.5 0,2.3 0,0.1 0,0.2 0,0.3 -0.5,-0.5 -1.3,-1.3 -1.6,-2.4 -0.3,-0.7 -0.4,-1.5 -0.5,-2 z m -0.3,2.9 c 0.1,0.1 0.2,0.1 0.3,0.2 0.1,0 0.1,0.1 0.1,0.1 -0.5,-0.1 -1.2,-0.1 -1.8,0 -0.1,0 -0.2,0 -0.3,0.1 0.3,-0.2 0.6,-0.5 0.9,-0.8 0.4,0.1 0.6,0.3 0.8,0.4 z m -1.7,-1.1 c 0.2,0 0.3,0.1 0.3,0.1 0.1,0.1 0.2,0.1 0.3,0.2 -0.9,0.6 -1.5,1.3 -1.6,1.5 -1.4,0.7 -2.4,1.9 -2.5,2 -0.3,0.1 -0.6,0.3 -0.9,0.5 -0.7,-0.6 -1.4,-0.9 -1.5,-0.9 -1.1,-1.2 -2.6,-1.8 -2.8,-1.9 -1.1,-1.2 -2.6,-1.7 -2.9,-1.8 -0.2,-0.2 -0.5,-0.4 -0.8,-0.6 0.1,0 0.2,-0.1 0.4,-0.1 0.5,-0.2 0.9,-0.3 1,-0.4 0.3,0 0.7,0 1,0 0.2,0 0.3,0 0.5,-0.1 0.1,0 0.1,0 0.2,0 0.1,0 0.1,0 0.2,0 0.5,-0.1 0.9,-0.2 1,-0.2 1.3,0.3 2.7,0.2 2.9,0.1 0.6,0.2 1.2,0.4 1.8,0.5 0.3,0.1 0.5,0.1 0.7,0.1 0.2,0 0.3,0 0.4,0 0.6,0.4 1.2,0.6 1.7,0.8 0.2,0 0.4,0.1 0.6,0.2 z m -2.8,-4.8 c 0.1,0.1 0.1,0.1 0.2,0.2 0.3,0.3 0.5,0.6 0.7,0.9 0.2,0.3 0.3,0.6 0.4,0.8 0.2,0.5 0.6,1.3 1,2 0.1,0.1 0.1,0.2 0.2,0.2 -0.8,-0.3 -1.9,-0.7 -2.6,-1.5 l -0.2,-0.2 c -0.2,-0.3 -0.5,-0.5 -0.6,-0.8 -0.2,-0.3 -0.4,-0.5 -0.5,-0.7 -0.3,-0.5 -0.9,-1.2 -1.6,-1.8 -0.1,-0.1 -0.2,-0.1 -0.3,-0.2 0.9,0 2.4,0.2 3.3,1.1 z m -5.2,-1.1 c 0.6,0.1 1.3,0.3 1.8,0.6 0.7,0.5 1.2,1.1 1.5,1.6 0.3,0.5 0.8,1.2 1.4,1.8 l 0.1,0.1 c 0.1,0.1 0.1,0.1 0.2,0.1 -0.1,0 -0.1,0 -0.2,0 -0.8,-0.1 -1.9,-0.4 -2.7,-1 -0.3,-0.2 -0.6,-0.5 -0.9,-0.8 -0.3,-0.3 -0.5,-0.5 -0.7,-0.7 -0.2,-0.2 -0.4,-0.5 -0.8,-0.8 -0.3,-0.3 -0.7,-0.5 -1.1,-0.7 -0.1,-0.1 -0.2,-0.1 -0.3,-0.1 0.4,-0.1 1,-0.1 1.7,-0.1 z m -3.6,0.4 c 0.6,0 1.3,0.1 1.9,0.3 0.8,0.4 1.4,1 1.8,1.4 0.4,0.4 1,1.1 1.6,1.6 0.1,0.1 0.2,0.1 0.3,0.2 -0.4,0 -0.9,0 -1.5,-0.1 -0.3,-0.1 -0.5,-0.1 -0.8,-0.2 -0.3,-0.1 -0.5,-0.2 -0.8,-0.3 -0.3,-0.2 -0.7,-0.4 -1,-0.6 -0.3,-0.2 -0.6,-0.4 -0.8,-0.6 -0.4,-0.4 -1.2,-0.9 -2.1,-1.2 -0.1,0 -0.2,-0.1 -0.3,-0.1 0.5,-0.2 1.1,-0.4 1.7,-0.4 z m -4.3,1.1 c 0.3,-0.1 0.6,-0.2 0.9,-0.2 0.6,-0.1 1.3,-0.1 1.9,0.1 0.8,0.3 1.5,0.7 1.9,1.1 0.5,0.4 1.1,1 1.9,1.3 0.1,0.1 0.2,0.1 0.3,0.1 -0.1,0 -0.2,0 -0.3,0 -0.1,0 -0.2,0 -0.3,0.1 -0.2,0 -0.5,0 -0.8,0 -0.5,0 -1.1,0 -1.6,-0.3 -0.8,-0.3 -1.4,-0.7 -1.9,-1 -0.2,-0.2 -0.6,-0.4 -1,-0.5 -0.4,-0.2 -0.8,-0.3 -1.3,-0.4 -0.1,0 -0.2,0 -0.3,0 0.1,-0.1 0.4,-0.2 0.6,-0.3 z m -0.5,0.8 c 0.9,0.2 1.6,0.5 2,0.8 0.2,0.2 0.6,0.4 0.9,0.6 0.4,0.2 0.7,0.4 1.1,0.5 0.1,0 0.2,0.1 0.3,0.1 -0.2,0.1 -0.4,0.1 -0.7,0.2 -0.1,0 -0.2,0 -0.3,0.1 -0.8,-0.4 -1.4,-0.6 -1.6,-0.7 -0.6,-0.5 -1.3,-0.9 -1.8,-1.1 l -0.1,0.5 c 0.9,0.3 2,1 2.5,2 0.4,0.7 0.6,1.5 0.7,2.1 0.1,0.6 0.3,1.5 0.7,2.2 0,0.1 0.1,0.2 0.2,0.3 -0.8,-0.4 -1.9,-1.1 -2.5,-2.1 -0.4,-0.7 -0.6,-1.5 -0.7,-2.1 -0.1,-0.6 -0.4,-1.4 -0.9,-2.2 l -0.1,-0.1 c 0,-0.1 -0.1,-0.1 -0.1,-0.2 0.1,0 0.1,0.1 0.2,0.1 l 0.2,-0.5 c -0.6,-0.3 -1.1,-0.4 -1.2,-0.4 0,0 -0.1,0 -0.1,-0.1 0.4,-0.1 0.9,-0.1 1.3,0 z m -0.6,1.4 c 0,0.1 0.1,0.1 0.1,0.2 0.4,0.7 0.6,1.3 0.7,1.8 0.1,0.6 0.4,1.4 0.8,2.2 0.1,0.1 0.1,0.2 0.2,0.3 -0.8,-0.4 -1.9,-1 -2.5,-2 0,-0.1 -0.1,-0.1 -0.1,-0.2 -0.4,-0.6 -0.6,-1.3 -0.7,-1.8 -0.2,-0.6 -0.5,-1.4 -1,-2.2 -0.1,-0.1 -0.1,-0.2 -0.2,-0.3 0.7,0.4 2,1 2.7,2 z m -3.1,-1.3 c 0.5,0.7 0.8,1.5 1,2 0.2,0.6 0.5,1.4 0.9,2.2 l 0.1,0.1 c 0,0.1 0.1,0.1 0.1,0.2 -0.1,0 -0.1,0 -0.2,-0.1 -0.8,-0.3 -1.8,-0.9 -2.5,-1.7 -0.5,-0.7 -0.8,-1.4 -1,-1.9 -0.2,-0.6 -0.6,-1.4 -1.3,-2.1 -0.1,-0.1 -0.2,-0.2 -0.3,-0.2 1.1,0 2.4,0.5 3.2,1.5 z m -3.3,-1.1 c 0.6,0.6 1,1.4 1.2,1.9 0.2,0.6 0.6,1.4 1.1,2.1 0.1,0.1 0.1,0.2 0.2,0.2 -0.8,-0.3 -2,-0.7 -2.7,-1.6 -0.3,-0.3 -0.5,-0.6 -0.7,-1 -0.2,-0.3 -0.4,-0.6 -0.5,-0.9 -0.3,-0.5 -0.8,-1.3 -1.6,-1.9 -0.1,-0.1 -0.2,-0.1 -0.3,-0.2 1,0.2 2.5,0.5 3.3,1.4 z m -5.2,-1.3 c 0.2,0 0.3,0 0.5,0.1 0.2,0 0.3,0.1 0.5,0.1 0.3,0.1 0.6,0.2 0.9,0.4 0.7,0.5 1.2,1.2 1.5,1.7 0.3,0.5 0.7,1.3 1.3,1.9 0.1,0.1 0.1,0.1 0.2,0.2 -0.8,-0.2 -2,-0.5 -2.8,-1.2 -0.3,-0.3 -0.6,-0.5 -0.8,-0.8 -0.2,-0.3 -0.5,-0.5 -0.6,-0.8 -0.4,-0.5 -1,-1.1 -1.9,-1.5 -0.1,0 -0.2,-0.1 -0.3,-0.1 0.2,0 0.8,0 1.5,0 z m -5.1,0.7 0,0 c 0.9,-0.3 2.3,-0.5 3.4,0 0.4,0.2 0.7,0.4 1,0.7 0.3,0.2 0.5,0.5 0.7,0.7 0.2,0.2 0.4,0.5 0.7,0.8 0.3,0.3 0.6,0.6 0.9,0.9 l 0.2,0.2 c -0.4,0 -0.9,0 -1.4,-0.1 -0.3,0 -0.5,-0.1 -0.8,-0.2 -0.3,-0.1 -0.5,-0.2 -0.8,-0.3 -0.7,-0.4 -1.3,-0.9 -1.7,-1.3 -0.4,-0.4 -1.2,-0.9 -2.1,-1.2 l -0.1,0 c -0.1,0 -0.2,0 -0.2,0 0.1,-0.2 0.2,-0.2 0.2,-0.2 z m 0,0.6 c 0.1,0 0.2,0 0.2,0.1 0.7,0.3 1.3,0.7 1.7,1 0.5,0.4 1.1,0.9 1.9,1.4 0.1,0 0.2,0.1 0.3,0.1 -0.8,0.1 -2,0.3 -3.1,-0.1 -0.1,0 -0.1,-0.1 -0.2,-0.1 -0.3,-0.1 -0.6,-0.3 -0.9,-0.5 -0.3,-0.2 -0.6,-0.3 -0.8,-0.4 -0.5,-0.3 -1.3,-0.7 -2.3,-0.8 -0.1,0 -0.2,0 -0.3,0 0.8,-0.6 2.3,-1.1 3.5,-0.7 z m -3.3,1.1 c 0.4,0 0.8,0.2 1.2,0.3 0.4,0.1 0.7,0.3 0.9,0.4 0.5,0.3 1.3,0.7 2.1,1 l 0.1,0 c 0.1,0 0.1,0 0.2,0.1 -0.1,0 -0.1,0 -0.2,0.1 -0.8,0.2 -1.8,0.5 -2.9,0.3 -0.8,-0.2 -1.5,-0.4 -2.1,-0.6 -0.6,-0.2 -1.4,-0.5 -2.4,-0.4 -0.1,0 -0.2,0 -0.3,0.1 0.7,-0.6 2.1,-1.4 3.4,-1.3 z m -3.8,1 c -0.1,0.1 -0.3,0.2 -0.4,0.4 0,-0.2 -0.1,-0.4 -0.1,-0.5 0,-0.1 -0.1,-0.2 -0.1,-0.3 0.1,0.1 0.3,0.2 0.6,0.4 z m -4.9,0.2 c 0,-0.1 -0.1,-0.2 -0.1,-0.2 l -0.4,0.5 c 0,0.1 0.1,0.1 0.1,0.2 -0.1,0 -0.1,-0.1 -0.2,-0.1 l -0.1,0.1 0.1,-0.1 c -0.1,-0.1 -0.1,-0.1 -0.2,-0.2 0,-0.1 0.1,-0.2 0.1,-0.4 0,0.1 0.1,0.2 0.1,0.3 l 0,0.1 0.4,-0.5 c -0.1,-0.2 -0.1,-0.6 -0.1,-0.6 0.1,-0.2 0.3,-0.4 0.5,-0.6 0.4,-0.5 0.7,-0.8 1,-1 0,0.1 0.1,0.1 0.1,0.2 0,0.1 0.1,0.2 0.1,0.2 l 0.4,-0.5 c 0,-0.1 -0.1,-0.1 -0.1,-0.2 0.1,0 0.1,0.1 0.2,0.1 l 0,0 c 0.7,0.5 1.6,1.3 2,2.4 0.1,0.3 0.2,0.6 0.2,0.8 -0.6,0.4 -1.2,0.9 -1.6,1.3 -0.2,-0.7 -0.3,-1.5 -0.3,-2 0,-0.6 -0.1,-1.5 -0.4,-2.3 l 0,-0.1 -0.4,0.5 c 0.2,0.7 0.3,1.4 0.3,1.9 0,0.6 0.1,1.5 0.4,2.3 0,0.1 0.1,0.1 0.1,0.2 0,0 0,0 0,0 -0.8,-0.3 -1.8,-1.2 -2.2,-2.3 z m 5.3,4.5 c -0.7,0.2 -1.5,0.3 -2.1,0.4 -0.6,0.1 -1.5,0.3 -2.3,1 -0.1,0.1 -0.2,0.2 -0.3,0.3 0.1,-0.3 0.2,-0.5 0.3,-0.9 0.1,-0.3 0.3,-0.6 0.5,-0.9 0.4,-0.6 0.9,-1.1 1.5,-1.3 0.8,-0.4 1.7,-0.3 2.2,-0.3 0.6,0.1 1.4,0.2 2.3,0.2 0.1,0 0.2,0 0.3,0 -0.5,0.5 -1.4,1.2 -2.4,1.5 z m -0.5,2.9 c 0.1,-0.2 0.1,-0.4 0.1,-0.5 0,-0.1 0.1,-0.3 0.1,-0.3 0.2,-0.2 0.4,-0.4 0.6,-0.6 0.9,1 2.1,1.6 2.3,1.7 0.9,1.2 2.3,1.9 2.5,2 0,0 0,0 0,0 -1.1,0.7 -1.8,1.6 -1.9,1.7 -1.4,0.7 -2.4,1.9 -2.6,2.1 -0.2,0.1 -0.3,0.2 -0.5,0.3 0,0 0,0 -0.1,-0.1 -0.2,-0.6 -0.4,-1.1 -0.6,-1.5 0,-0.1 -0.1,-0.2 -0.1,-0.3 0,-0.1 -0.1,-0.2 -0.1,-0.2 -0.1,-0.1 -0.1,-0.2 -0.1,-0.3 0,-0.6 0,-1.1 0,-1.5 0,-0.2 0,-0.5 -0.1,-0.6 0,-0.2 0,-0.3 0,-0.3 0.2,-0.7 0.4,-1.2 0.5,-1.6 z m -3.9,6.1 c 0,0.1 0,0.2 0,0.4 -0.2,-0.5 -0.5,-1.1 -0.5,-1.8 -0.1,-0.7 0,-1.4 0.3,-2 0,-0.1 0.1,-0.2 0.1,-0.2 0.2,-0.3 0.5,-0.6 0.7,-0.9 0.3,-0.2 0.5,-0.4 0.7,-0.5 0.5,-0.3 1.2,-0.7 1.9,-1.1 0.1,-0.1 0.2,-0.1 0.2,-0.2 -0.1,0.3 -0.2,0.8 -0.4,1.2 -0.2,0.4 -0.4,0.9 -0.7,1.3 0,0.1 -0.1,0.1 -0.1,0.2 -0.2,0.3 -0.4,0.5 -0.6,0.8 -0.2,0.3 -0.4,0.5 -0.6,0.7 -0.4,0.3 -0.9,1.1 -1,2.1 z m 0.9,2.2 c -0.3,-0.6 -0.5,-1.3 -0.4,-2 0.1,-0.9 0.5,-1.7 0.9,-2.1 0.4,-0.5 0.9,-1.1 1.4,-1.7 l 0,-0.1 c 0,-0.1 0.1,-0.1 0.1,-0.2 0,0.1 0,0.1 0,0.2 0,0.4 0.1,0.8 0.1,1.2 0,0.4 -0.1,0.9 -0.2,1.4 -0.2,0.7 -0.5,1.5 -0.7,2 -0.1,0.4 -0.3,0.9 -0.3,1.4 -0.2,0.1 -0.4,0.3 -0.6,0.4 -0.1,-0.2 -0.2,-0.3 -0.3,-0.5 z m 4.9,1.6 c -0.8,0.1 -1.6,0 -2.2,-0.1 -0.6,-0.1 -1.5,-0.2 -2.4,-0.1 -0.1,0 -0.2,0 -0.3,0.1 0.7,-0.6 1.7,-1.5 2.9,-1.6 0.8,-0.1 1.6,0 2.2,0.1 0.6,0.1 1.5,0.2 2.4,0.1 0.1,0 0.2,0 0.3,-0.1 -0.6,0.7 -1.7,1.5 -2.9,1.6 z m -5,4.1 c -0.1,0 -0.2,0 -0.2,0 l 0.4,0.5 c 0.1,0 0.1,0 0.2,0 0,0 -0.1,0.1 -0.1,0.1 l 0,0 c -0.1,0.1 -0.1,0.1 -0.2,0.2 -0.1,-0.1 -0.2,-0.1 -0.3,-0.2 0.1,0 0.2,0 0.4,0 l 0.1,0 -0.4,-0.5 c -0.2,0 -0.6,0 -0.6,0 -0.2,-0.2 -0.3,-0.4 -0.5,-0.6 -0.4,-0.5 -0.6,-0.9 -0.8,-1.2 0.1,0 0.2,0 0.2,0 0.1,0 0.2,0 0.2,0 l 0,0 c 0.7,-0.1 1.5,0 2,0.1 0.6,0.1 1.5,0.2 2.4,0.1 0.1,0 0.2,0 0.3,-0.1 -0.9,0.7 -1.9,1.5 -3.1,1.6 z m 3.8,-1.8 c 0.1,0 0.1,-0.1 0,0 0.1,0 0.1,0 0.2,0.1 -0.1,0 -0.1,-0.1 -0.2,-0.1 z m 1.8,1.1 c -0.5,-0.4 -1,-0.9 -1.3,-1.4 0.6,-0.4 1.1,-0.8 1.5,-1.2 0.1,0.3 0.1,0.6 0.2,0.9 0.1,0.3 0.1,0.7 0.3,1.1 0.2,0.4 0.4,0.8 0.7,1.2 0.1,0.1 0.2,0.2 0.2,0.3 -0.4,-0.3 -1,-0.6 -1.6,-0.9 z m 4.9,1.7 0,0 c -0.2,0 -0.5,-0.1 -0.8,-0.2 -0.3,-0.1 -0.5,-0.2 -0.8,-0.3 -0.3,-0.1 -0.5,-0.3 -0.8,-0.5 -0.2,-0.2 -0.5,-0.4 -0.6,-0.6 -0.3,-0.4 -0.5,-0.7 -0.6,-1.1 -0.1,-0.4 -0.2,-0.7 -0.3,-1 -0.1,-0.3 -0.2,-0.8 -0.3,-1.2 0.1,-0.1 0.2,-0.2 0.2,-0.2 0.2,-0.1 0.4,-0.2 0.5,-0.3 0,0 0,0 0,0 0.4,0.3 0.8,0.7 1.1,1.2 0.1,0.2 0.2,0.3 0.3,0.5 0.1,0.2 0.2,0.3 0.3,0.5 0.2,0.3 0.3,0.7 0.4,0.9 0.1,0.3 0.3,0.6 0.5,1 0.2,0.4 0.5,0.7 0.9,1 l 0.1,0.1 c 0.1,0.1 0.1,0.1 0.2,0.1 -0.2,0.2 -0.3,0.2 -0.3,0.1 z m 0.3,-0.5 c -0.1,-0.1 -0.1,-0.1 -0.2,-0.2 -0.3,-0.3 -0.5,-0.6 -0.7,-0.9 -0.2,-0.3 -0.3,-0.6 -0.4,-0.8 -0.2,-0.5 -0.6,-1.3 -1,-2 -0.1,-0.1 -0.1,-0.2 -0.2,-0.2 0.8,0.3 1.9,0.7 2.6,1.5 l 0.2,0.2 c 0.2,0.3 0.5,0.5 0.6,0.8 0.2,0.3 0.4,0.5 0.5,0.7 0.3,0.5 0.9,1.2 1.6,1.8 0.1,0.1 0.2,0.1 0.3,0.2 -0.9,0 -2.4,-0.2 -3.3,-1.1 z m 5.2,1.1 c -0.6,-0.1 -1.3,-0.3 -1.8,-0.6 -0.7,-0.5 -1.2,-1.1 -1.5,-1.6 -0.3,-0.5 -0.8,-1.2 -1.4,-1.8 l -0.1,-0.1 c -0.1,-0.1 -0.1,-0.1 -0.2,-0.1 0.1,0 0.1,0 0.2,0 0.8,0.1 1.9,0.4 2.7,1 0.3,0.2 0.6,0.5 0.9,0.8 0.3,0.3 0.5,0.5 0.7,0.7 0.2,0.2 0.4,0.5 0.8,0.8 0.3,0.3 0.7,0.5 1.1,0.7 0.1,0.1 0.2,0.1 0.3,0.1 -0.4,0.1 -1,0.1 -1.7,0.1 z m 3.6,-0.4 c -0.6,0 -1.3,-0.1 -1.9,-0.3 -0.8,-0.4 -1.4,-1 -1.8,-1.4 -0.4,-0.4 -1,-1.1 -1.6,-1.6 -0.1,-0.1 -0.2,-0.1 -0.3,-0.2 0.4,0 0.9,0 1.5,0.1 0.3,0.1 0.5,0.1 0.8,0.2 0.3,0.1 0.5,0.2 0.8,0.3 0.3,0.2 0.7,0.4 1,0.6 0.3,0.2 0.6,0.4 0.8,0.6 0.4,0.4 1.2,0.9 2.1,1.2 0.1,0 0.2,0.1 0.3,0.1 -0.5,0.2 -1.1,0.4 -1.7,0.4 z m 4.3,-1.1 c -0.3,0.1 -0.6,0.2 -0.9,0.2 -0.6,0.1 -1.3,0.1 -1.9,-0.1 -0.8,-0.3 -1.5,-0.7 -1.9,-1.1 -0.5,-0.4 -1.1,-1 -1.9,-1.3 -0.1,-0.1 -0.2,-0.1 -0.3,-0.1 0.1,0 0.2,0 0.3,0 0.1,0 0.2,0 0.3,-0.1 0.2,0 0.5,0 0.8,0 0.5,0 1.1,0 1.6,0.3 0.8,0.3 1.4,0.7 1.9,1 0.2,0.2 0.6,0.4 1,0.5 0.4,0.2 0.8,0.3 1.3,0.4 0.1,0 0.2,0 0.3,0 -0.1,0.1 -0.4,0.2 -0.6,0.3 z m 0.5,-0.8 c -0.9,-0.2 -1.6,-0.5 -2,-0.8 -0.2,-0.2 -0.6,-0.4 -0.9,-0.6 -0.4,-0.2 -0.7,-0.4 -1.1,-0.5 -0.2,-0.1 -0.3,-0.1 -0.4,-0.1 0.2,-0.1 0.4,-0.1 0.7,-0.2 0.1,0 0.2,0 0.3,-0.1 0.8,0.4 1.4,0.6 1.6,0.7 0.6,0.5 1.3,0.9 1.8,1.1 0.6,0.3 1.1,0.4 1.2,0.4 0,0 0.1,0 0.1,0.1 -0.4,0.1 -0.9,0.1 -1.3,0 z m 0.6,-1.4 c 0,-0.1 -0.1,-0.1 -0.1,-0.2 -0.4,-0.7 -0.6,-1.3 -0.7,-1.8 -0.1,-0.6 -0.4,-1.4 -0.8,-2.2 -0.1,-0.1 -0.1,-0.2 -0.2,-0.3 0.8,0.4 1.9,1 2.5,2 0,0.1 0.1,0.1 0.1,0.2 0.4,0.6 0.6,1.3 0.7,1.8 0.2,0.6 0.5,1.4 1,2.2 0.1,0.1 0.1,0.2 0.2,0.3 -0.7,-0.4 -2,-1 -2.7,-2 z m 3.1,1.3 c -0.5,-0.7 -0.8,-1.5 -1,-2 -0.2,-0.6 -0.5,-1.4 -0.9,-2.2 l -0.1,-0.1 c 0,-0.1 -0.1,-0.1 -0.1,-0.2 0.1,0 0.1,0 0.2,0.1 0.8,0.3 1.8,0.9 2.5,1.7 0.5,0.7 0.8,1.4 1,1.9 0.2,0.6 0.6,1.4 1.3,2.1 0.1,0.1 0.2,0.2 0.3,0.2 -1.1,0 -2.4,-0.5 -3.2,-1.5 z m 3.3,1.1 c -0.6,-0.6 -1,-1.4 -1.2,-1.9 -0.2,-0.6 -0.6,-1.4 -1.1,-2.1 -0.1,-0.1 -0.1,-0.2 -0.2,-0.2 0.8,0.3 2,0.7 2.7,1.6 0.3,0.3 0.5,0.6 0.7,1 0.2,0.3 0.4,0.6 0.5,0.9 0.3,0.5 0.8,1.3 1.6,1.9 0.1,0.1 0.2,0.1 0.3,0.2 -1,-0.2 -2.5,-0.5 -3.3,-1.4 z m 4.1,-1.2 c 0.2,0.3 0.5,0.5 0.6,0.8 0.4,0.5 1,1.1 1.9,1.5 0.1,0 0.2,0.1 0.3,0.1 -0.5,0.1 -1.1,0.1 -1.7,0.1 -0.2,0 -0.3,0 -0.5,-0.1 -0.2,0 -0.3,-0.1 -0.5,-0.1 -0.3,-0.1 -0.6,-0.2 -0.9,-0.4 -0.7,-0.5 -1.2,-1.2 -1.5,-1.7 -0.2,-0.6 -0.6,-1.3 -1.2,-2 -0.1,-0.1 -0.1,-0.1 -0.2,-0.2 0.8,0.2 2,0.5 2.8,1.2 0.4,0.2 0.6,0.5 0.9,0.8 z m 1.2,-1.7 c -0.2,0 -0.3,-0.1 -0.5,-0.1 -0.2,0 -0.3,0 -0.5,0 -0.3,0 -0.6,-0.1 -0.8,-0.1 -0.3,0 -0.5,0 -0.7,0 -0.2,0 -0.3,0 -0.4,0 -0.6,-0.3 -1.3,-0.5 -1.8,-0.6 0,0 -0.1,0 -0.1,0 0.7,-0.3 1.4,-0.7 1.8,-1 0.5,-0.4 0.8,-0.7 0.9,-0.8 0.7,-0.3 1.4,-0.7 1.9,-1.1 0.5,-0.4 0.8,-0.7 0.9,-0.8 0.9,-0.4 1.7,-1.1 2.2,-1.5 0.1,0.1 0.2,0.1 0.2,0.1 1,1.2 2.3,2 2.6,2.1 0.7,0.9 1.6,1.5 2.2,1.8 -0.5,0.2 -0.9,0.4 -1.3,0.5 -0.5,0.2 -0.8,0.5 -0.9,0.5 -0.6,0.1 -1.3,0.2 -1.8,0.4 -0.6,0.2 -1,0.3 -1,0.4 -0.7,-0.1 -1.3,0 -1.9,0.1 -0.5,0 -0.9,0.1 -1,0.1 z m 5,2.9 c -0.1,0 -0.2,0 -0.2,-0.1 -0.7,-0.3 -1.3,-0.7 -1.7,-1 -0.5,-0.4 -1.1,-0.9 -1.9,-1.4 -0.1,0 -0.2,-0.1 -0.3,-0.1 0.8,-0.1 2,-0.3 3.1,0.1 0.1,0 0.1,0.1 0.2,0.1 0.3,0.1 0.6,0.3 0.9,0.5 0.3,0.2 0.6,0.3 0.8,0.4 0.5,0.3 1.3,0.7 2.3,0.8 0.1,0 0.2,0 0.3,0 -0.8,0.6 -2.3,1.1 -3.5,0.7 z m 3.3,-1.1 c -0.4,0 -0.8,-0.2 -1.2,-0.3 -0.4,-0.1 -0.7,-0.3 -0.9,-0.4 -0.5,-0.3 -1.3,-0.7 -2.1,-1 l -0.1,0 c -0.1,0 -0.1,0 -0.2,-0.1 0.1,0 0.1,0 0.2,-0.1 0.8,-0.2 1.8,-0.5 2.9,-0.3 0.8,0.2 1.5,0.4 2.1,0.6 0.5,0.2 1.3,0.4 2.2,0.4 0.1,0.1 0.2,0.2 0.2,0.2 -0.9,0.5 -2,1.1 -3.1,1 z m 2.3,-3 c -0.3,-0.8 -0.3,-1.6 -0.4,-2.2 0,-0.6 -0.1,-1.5 -0.4,-2.3 0,-0.1 -0.1,-0.2 -0.1,-0.3 0.7,0.5 1.8,1.4 2.2,2.5 0.3,0.8 0.3,1.6 0.4,2.2 0,0.6 0.1,1.5 0.4,2.3 0,0.1 0.1,0.2 0.1,0.3 -0.8,-0.5 -1.8,-1.4 -2.2,-2.5 z m 6.2,3.2 c -0.4,0.5 -0.7,0.8 -1,1 0,-0.1 -0.1,-0.1 -0.1,-0.2 0,-0.1 -0.1,-0.2 -0.1,-0.2 l -0.4,0.5 c 0,0.1 0.1,0.1 0.1,0.2 -0.1,0 -0.1,-0.1 -0.2,-0.1 l 0,0 c -0.7,-0.5 -1.6,-1.3 -2,-2.4 -0.3,-0.8 -0.3,-1.6 -0.4,-2.2 0,-0.6 -0.1,-1.5 -0.4,-2.3 0,-0.1 -0.1,-0.2 -0.1,-0.3 0.7,0.5 1.8,1.4 2.2,2.5 0.3,0.8 0.3,1.6 0.4,2.2 0,0.6 0.1,1.5 0.4,2.3 l 0,0.1 0.4,-0.5 c -0.2,-0.7 -0.3,-1.4 -0.3,-1.9 0,-0.6 -0.1,-1.5 -0.4,-2.3 0,-0.1 -0.1,-0.2 -0.1,-0.3 0.7,0.5 1.8,1.4 2.2,2.5 0,0.1 0.1,0.2 0.1,0.2 0.1,0.2 0.1,0.6 0.1,0.6 -0.1,0.2 -0.2,0.4 -0.4,0.6 z m 0.8,-1.3 c 0,-0.1 -0.1,-0.2 -0.1,-0.3 l 0,-0.1 0,0 c 0,-0.1 -0.1,-0.1 -0.1,-0.2 0.1,0 0.1,0.1 0.2,0.1 l 0,0 c 0.1,0.1 0.1,0.1 0.2,0.2 -0.1,0.1 -0.1,0.2 -0.2,0.3 z m 2.2,6.3 c 0.1,-0.1 0.3,-0.2 0.5,-0.4 0.5,0.4 0.9,0.5 1.2,0.6 -0.5,0.2 -1,0.2 -1.7,-0.2 z m 2.6,-0.2 c -0.5,0 -1,0 -1.7,-0.6 0.2,-0.2 0.3,-0.3 0.5,-0.6 0.2,-0.2 0.3,-0.4 0.5,-0.6 0.6,0.6 0.7,1.1 0.9,1.6 l 0,0.1 -0.2,0.1 z m 0.4,-1.1 c -0.2,-0.3 -0.4,-0.7 -0.8,-1.1 0.1,-0.2 0.2,-0.4 0.3,-0.6 0.5,0.6 0.6,1.1 0.5,1.7 z"
     id="path6522"
     inkscape:connector-curvature="0" /></svg>