<?xml version="1.0" encoding="UTF-8" standalone="no"?>
<!-- Created with Inkscape (http://www.inkscape.org/) -->

<svg
   xmlns:dc="http://purl.org/dc/elements/1.1/"
   xmlns:cc="http://creativecommons.org/ns#"
   xmlns:rdf="http://www.w3.org/1999/02/22-rdf-syntax-ns#"
   xmlns:svg="http://www.w3.org/2000/svg"
   xmlns="http://www.w3.org/2000/svg"
   xmlns:sodipodi="http://sodipodi.sourceforge.net/DTD/sodipodi-0.dtd"
   xmlns:inkscape="http://www.inkscape.org/namespaces/inkscape"
   width="517.28064"
   height="649.62531"
   id="svg3303"
   version="1.1"
   inkscape:version="0.48.4 r9939"
   sodipodi:docname="logo.svg">
  <defs
     id="defs3305" />
  <sodipodi:namedview
     id="base"
     pagecolor="#ffffff"
     bordercolor="#666666"
     borderopacity="1.0"
     inkscape:pageopacity="0.0"
     inkscape:pageshadow="2"
     inkscape:zoom="0.28066406"
     inkscape:cx="-516.62146"
     inkscape:cy="256.02929"
     inkscape:document-units="px"
     inkscape:current-layer="g3398"
     showgrid="false"
     showguides="true"
     inkscape:guide-bbox="true"
     inkscape:snap-page="true"
     inkscape:window-width="2560"
     inkscape:window-height="1031"
     inkscape:window-x="0"
     inkscape:window-y="25"
     inkscape:window-maximized="1"
     fit-margin-top="0"
     fit-margin-left="0"
     fit-margin-right="0"
     fit-margin-bottom="0" />
  <metadata
     id="metadata3308">
    <rdf:RDF>
      <cc:Work
         rdf:about="">
        <dc:format>image/svg+xml</dc:format>
        <dc:type
           rdf:resource="http://purl.org/dc/dcmitype/StillImage" />
        <dc:title></dc:title>
      </cc:Work>
    </rdf:RDF>
  </metadata>
  <g
     id="layer1"
     inkscape:label="Layer 1"
     inkscape:groupmode="layer"
     transform="translate(-701.35969,-215.18734)">
    <g
       id="g3398"
       transform="translate(559.90349,227.104)">
      <g
         id="layer2"
         style="display:inline" />
      <g
         id="layer7"
         style="display:inline" />
      <path
         style="color:#000000;fill:#fff;fill-opacity:1;fill-rule:evenodd;stroke:#393633;stroke-width:0.47890428;stroke-linecap:butt;stroke-linejoin:miter;stroke-miterlimit:4;stroke-opacity:1;stroke-dashoffset:0;marker:none;visibility:visible;display:inline;overflow:visible;enable-background:accumulate"
         d="m 392.14017,-11.674992 0,18.8461307 -10.47,24.7094203 c 1.0503,0.54117 2.3035,1.12266 3.3502,1.67522 l 7.1198,-16.75214 -0.4184,20.52134 c -2.2323,-1.23765 -4.4495,-2.58104 -6.7005,-3.7692 L 285.34606,274.78625 c 35.1384,6.13245 70.76731,18.78738 104.70061,36.85469 l 0,9.63241 c -35.0219,-19.19343 -71.73931,-32.00751 -108.05181,-38.11103 l -7.1197,16.75213 c 38.6,2.77339 77.51411,12.3467 115.17061,28.05976 l 0,9.21372 C 351.58827,320.92115 311.23566,311.36155 271.52496,308.7093 l -2.0944,4.60686 c 38.5626,3.17659 83.18931,21.05352 120.19691,35.17939 l 0,29.31619 c -62.48162,1.61531 -124.05181,21.51796 -178.41062,57.37604 l 58.21371,-121.87162 c -1.23271,-0.11037 0.3471,-0.13174 -3.3502,-0.41923 l -55.701,122.70919 c -12.2715,8.14028 -24.1443,17.00554 -35.5978,26.80341 l 30.15319,28.89741 c 3.4579,-3.46418 7.1651,-6.66293 10.8892,-9.6325 28.2759,26.60725 49.3173,47.17363 67.84611,65.75211 -3.83361,-1.12844 -7.8229,-1.67521 -12.5644,-1.67521 -18.9711,0 -30.4557,10.59183 -38.5296,18.84613 -8.0739,8.25413 -12.6435,14.23927 -25.9662,14.23927 -13.3218,0 -18.7308,-5.98532 -26.8029,-14.23927 -8.073,-8.25422 -19.1429,-18.84613 -38.11131,-18.84613 l 0,16.75214 c 13.3218,0 18.31241,5.56645 26.3845,13.82048 8.073,8.25413 19.5613,18.84613 38.5297,18.84613 18.9693,0 30.0383,-10.59218 38.1113,-18.84613 8.073,-8.25386 13.0592,-13.82048 26.3845,-13.82048 13.3156,0 18.3151,5.56645 26.3846,13.82048 7.2497,7.41506 16.9933,16.60145 32.66671,18.42735 8.0472,8.16156 15.4686,15.08253 21.7775,20.94013 -4.1896,2.96511 -8.9622,4.60686 -16.3329,4.60686 -13.27821,0 -18.31421,-5.56654 -26.38461,-13.82058 -8.0694,-8.25413 -19.109,-18.84613 -38.1113,-18.84613 -19.0084,0 -30.4557,10.59182 -38.5296,18.84613 -8.0739,8.25421 -12.6818,13.82058 -25.9662,13.82058 -13.2835,0 -18.3116,-5.56654 -26.3846,-13.82058 -8.0721,-8.25413 -19.5229,-18.84613 -38.5296,-18.84613 l 0,16.75213 c 13.2844,0 18.3124,5.56663 26.3845,13.82049 8.073,8.25422 19.5239,19.265 38.5297,19.265 19.0067,0 30.0383,-11.01096 38.1113,-19.265 8.073,-8.25377 13.0975,-13.82049 26.3845,-13.82049 13.2782,0 18.3151,5.56663 26.3846,13.82049 8.0703,8.25422 19.1099,19.265 38.11131,19.265 19.0067,0 30.4575,-11.01078 38.5296,-19.265 8.073,-8.25386 12.6818,-13.82049 25.9662,-13.82049 3.166,0 6.0045,0.23498 8.3757,0.83757 0.1246,0.0267 0.3026,-0.0356 0.4183,0 0.2937,0.0908 0.5429,0.32398 0.8367,0.41833 2.0472,0.64264 3.7579,1.45305 5.4446,2.51287 3.0004,1.88491 5.9101,4.60864 8.7948,7.53841 0.8634,0.87851 1.5808,1.56049 2.5127,2.51287 8.0757,8.25412 19.5194,19.26491 38.5305,19.26491 19.0059,0 30.0384,-11.01079 38.1105,-19.26491 8.073,-8.25395 13.1001,-13.82058 26.3845,-13.82058 13.2978,0 18.3071,5.56663 26.3846,13.82058 8.0783,8.25412 19.0957,19.26491 38.1113,19.26491 19.0156,0 30.0329,-11.01079 38.1113,-19.26491 8.0774,-8.25395 13.0868,-13.82058 26.3845,-13.82058 l 0,-16.75205 c -19.0156,0 -30.033,10.59192 -38.1113,18.84613 -8.0783,8.25395 -13.0877,13.82049 -26.3845,13.82049 -13.2969,0 -18.3063,-5.56654 -26.3846,-13.82049 -8.0783,-8.25421 -19.0957,-18.84613 -38.1113,-18.84613 -19.0058,0 -30.4566,10.59192 -38.5296,18.84613 -8.0721,8.25395 -12.681,13.82049 -25.9654,13.82049 -8.6711,0 -14.1014,-2.31082 -18.8464,-6.28207 l 18.8464,-18.84613 0.4184,0 c 18.6996,-0.16377 29.6823,-10.65618 37.6921,-18.84613 8.0721,-8.25404 13.0627,-13.82049 26.3845,-13.82049 13.3342,0 18.3062,5.56645 26.3846,13.82049 8.0783,8.25422 19.133,18.84613 38.1113,18.84613 18.9773,0 30.0329,-10.59191 38.1104,-18.84613 8.0783,-8.25404 13.0503,-13.82049 26.3845,-13.82049 l 0,-16.75213 c -18.9773,0 -30.033,10.592 -38.1104,18.84613 -8.0783,8.25395 -13.0503,14.23927 -26.3845,14.23927 -13.3352,0 -18.3071,-5.98532 -26.3846,-14.23927 -8.0783,-8.25413 -19.134,-18.84613 -38.1113,-18.84613 -6.4166,0 -11.9235,1.41638 -16.7521,3.35042 l 67.8461,-66.58967 c 3.6261,2.41318 7.4499,5.23472 10.8883,9.21363 l 30.154,-28.05976 c -12.5536,-10.83748 -25.6876,-20.16202 -38.9489,-28.89732 l -55.2817,-116.4272 c -1.2177,0.10859 -2.1291,0.28571 -3.3503,0.41833 l 57.7945,115.58955 c -54.7478,-35.86154 -114.3909,-54.40273 -174.2219,-56.11951 l 0,-28.05985 c 1.8914,0.0712 3.6921,0.24477 5.4446,0.41922 35.3022,-11.93139 74.1203,-27.81222 110.9828,-31.82905 l -3.7677,-8.79476 c -37.6698,4.44237 -75.3957,15.34181 -111.402,31.82897 l -1.6751,0.41833 0,-10.05128 c 1.0253,-0.15576 1.9279,-0.0623 2.9319,-0.41923 34.8741,-15.56619 70.8207,-25.78018 106.795,-30.15375 l -5.8639,-15.4957 c -34.543,7.741 -69.2809,21.66954 -102.1879,41.04268 -0.5518,0.19404 -1.1108,0.30352 -1.6751,0.41834 l -2.0944,-306.982581 7.9573,19.26492 c 1.0432,-0.59636 1.8861,-1.08981 2.9319,-1.67522 l -10.8892,-27.2222 0,-22.615331 -12.9826,0 z m 23.8718,49.837541 95.0682,239.136481 c 13.3859,-2.90032 26.9462,-4.78915 40.2048,-5.86321 l 0,-275.9911718 c -45.0584,3.75745965 -91.6076,18.2671308 -135.273,42.7179008 z m 95.0682,239.136481 c -1.166,0.25367 -2.1851,0.57143 -3.3502,0.83756 l 3.3502,7.95728 c 1.1785,-0.26524 2.1727,-0.16911 3.3503,-0.41922 l -3.3503,-8.37607 z m 3.3503,8.37606 6.2821,15.4957 c 17.9707,-1.99671 35.7731,-2.481 53.6067,-1.67521 l 0,-273.478311 c -4.9257,-0.22786 -9.6814,-0.0178 -14.6578,0 l 0,253.375841 -4.1878,0.41834 c -13.6529,0.92078 -27.2292,2.93458 -41.0432,5.8632 z m 6.2821,15.4957 c -1.2078,0.12728 -2.5625,0.27147 -3.7694,0.41834 l 3.3511,8.37606 c 1.2221,-0.14597 2.5474,0.13174 3.7686,0 l -3.3503,-8.79484 z m 3.3503,8.79494 3.3502,8.37607 c 23.0735,-2.01799 45.3468,0.9125 65.7527,12.56405 -5.676,-45.99969 -9.6965,-210.78673 4.607,-274.315961 -4.90791,-0.70583 -10.1237,-0.75122 -15.077,-1.25643 l 0,253.375841 -4.18871,-0.41923 c -17.8852,-1.05768 -36.16999,-0.28304 -54.4442,1.67521 z m -16.3329,-31.82905 -94.6499,-238.298921 c -1.3672,0.78238 -2.8251,1.71046 -4.1878,2.51286 l 0,274.734741 c 31.9395,-18.28538 65.3833,-31.31147 98.8377,-38.94868 z m -241.64961,34.76061 1.6751,-4.60677 c -12.4264,-0.6907 -24.6418,-0.72809 -36.8545,0 l -4.6071,0.41922 0,-253.375831 c -4.9577,0.51001 -9.7499,0.97499 -14.6577,1.67521 9.7285,106.606361 10.332,166.275511 -0.4184,269.290321 14.5323,-11.24292 33.8274,-14.62227 54.8635,-13.40171 z m 1.6751,-4.60677 c 1.2372,0.0712 2.5323,0.3311 3.7695,0.41922 l 3.3502,-8.79494 c -1.2274,-0.0908 -2.1228,0.0712 -3.3502,0 l -3.7695,8.37607 z m 3.7695,-8.37607 7.1197,-17.58978 c -8.34,-1.29836 -16.8634,-1.95595 -25.1287,-2.51278 l -3.7685,-0.41834 0,-253.375831 c -4.972,-0.0178 -10.1558,-0.23587 -15.0771,0 l 0,273.478391 c 12.154,-0.55007 24.6267,-0.33022 36.8546,0.41923 z m 7.1197,-17.58978 c 1.1874,0.18335 2.1629,0.63907 3.3502,0.83756 l 3.35029,-8.37607 c -1.1883,-0.20739 -2.1629,-0.22519 -3.35029,-0.41922 l -3.3502,7.95728 z m 3.3502,-7.9572 99.6753,-242.486911 C 341.38797,11.100389 299.26236,-1.1286522 258.12306,-4.5553518 l 0,275.9911718 c 7.9092,0.63997 15.9039,1.63561 23.8718,2.93165 z m 107.63261,144.48696 -0.8367,85.01702 c -10.1771,0.35336 -20.0579,1.31073 -30.154,3.35043 l -23.8719,-81.6666 c 17.3975,-3.76636 35.863,-6.12506 54.8635,-6.70085 z m 18.008,0 c 17.0272,0.58122 34.818,2.64459 53.1883,6.70085 l -24.2902,83.34181 c -9.4455,-2.40686 -18.6435,-3.86204 -28.0605,-4.60677 l -0.8367,-85.43589 z m 69.9405,10.47015 c 25.587,7.49275 49.8994,15.65182 89.6236,43.13668 l -67.0086,67.42723 c -13.7356,-11.32373 -29.4001,-19.89348 -46.9052,-25.96576 l 24.2902,-84.59815 z m -159.56411,0.83756 23.87191,81.66651 c -19.10381,6.0656 -34.66142,14.30994 -47.74382,23.87177 l -64.9142,-64.07681 c 26.0419,-17.75525 54.84481,-32.44054 88.7861,-41.46147 z m 70.77801,89.62379 0,27.2222 c -6.5171,1.69444 -11.7873,4.95479 -16.3338,8.37607 l -9.6324,-32.66662 c 8.2893,-1.58096 17.0058,-2.55239 25.9662,-2.93165 z m 19.6832,0.41923 c 7.5104,0.68714 15.1758,2.1126 23.4535,4.18808 l -8.7949,27.64097 c -4.2278,-2.49782 -9.3787,-4.45011 -15.077,-5.44442 l 0.4184,-26.38454 z m -62.4015,7.11963 12.146,41.04269 c -5.822,5.85466 -10.9987,10.03909 -20.9409,10.47015 l -31.40991,-31.41027 c 10.7948,-7.53557 23.56571,-14.65681 40.20481,-20.10257 z m 102.6071,2.09409 c 14.2866,5.85688 27.4829,12.85342 39.3672,22.19655 l -26.8029,26.80333 c -10.2207,-1.06293 -15.6422,-6.25688 -22.6159,-13.40162 l 10.0516,-35.59826 z m -40.624,33.92296 c 3.9822,0.97437 7.1625,2.6867 10.0517,5.02564 l -6.7014,20.52134 c -1.1936,-0.30618 -2.4958,-0.6275 -3.7695,-0.83756 l 0.4183,-24.70933 z m -19.684,1.25643 0,24.70942 c -1.9083,0.52693 -3.7268,0.94242 -5.4446,1.67522 l -5.4437,-18.00857 c 3.482,-3.48527 6.7806,-6.55346 10.8883,-8.37607 z m 44.8118,18.42735 c 4.0142,3.48536 8.9435,6.44691 14.6587,8.79485 l -12.1451,12.14527 c -2.0303,-1.99768 -4.2261,-3.90583 -6.7014,-5.8632 l 4.1878,-15.07692 z m -69.9396,2.93165 4.1878,15.07692 c -1.392,1.26827 -2.5367,2.53209 -3.7694,3.7692 l -12.5635,-12.14527 c 4.7682,-1.73485 8.5706,-4.00152 12.1451,-6.70085 z"
         id="path8018-1"
         inkscape:connector-curvature="0" />
    </g>
  </g>
</svg>
