<?xml version="1.0" standalone="no"?>
<!DOCTYPE svg PUBLIC "-//W3C//DTD SVG 1.1//EN" "http://www.w3.org/Graphics/SVG/1.1/DTD/svg11.dtd" >
<svg>
<metadata>
Created by FontForge 20110222 at Tue Aug 26 10:35:44 2014
 By www-data
Copyright (c) by Thomas Breure. All rights reserved. www.thomasbreure.com
</metadata>
<defs>
<font id="PORT118" horiz-adv-x="625" >
  <font-face 
    font-family="PORT118"
    font-weight="400"
    font-stretch="normal"
    units-per-em="1000"
    panose-1="0 0 0 0 0 0 0 0 0 0"
    ascent="800"
    descent="-200"
    x-height="699"
    cap-height="700"
    bbox="40 -84 871 792"
    underline-thickness="50"
    underline-position="-50"
    unicode-range="U+0020-20AC"
  />
    <missing-glyph />
    <glyph glyph-name="B" unicode="B" 
d="M356 700q41 0 77 -15.5t62.5 -42t42 -62.5t15.5 -77q0 -43 -17 -80t-46 -64q38 -27 61.5 -69t23.5 -93q0 -38 -13.5 -72t-37 -60.5t-55.5 -43.5t-69 -21h-350v700h306zM387 219q0 34 -23.5 57.5t-57.5 23.5h-81v-163h81q34 0 57.5 24t23.5 58zM367 498q0 29 -21 50
t-50 21h-71v-143h71q29 0 50 21t21 51z" />
    <glyph glyph-name="C" unicode="C" horiz-adv-x="581" 
d="M50 700h481v-163h-306v-388q31 -3 64 -3q128 0 242 44v-162q-57 -21 -117.5 -32.5t-124.5 -11.5q-63 0 -123 11t-116 31v674z" />
    <glyph glyph-name="D" unicode="D" 
d="M50 0v700h455q34 -82 52 -170.5t18 -182.5q0 -93 -17.5 -179.5t-49.5 -167.5h-458zM219 175h165q8 42 12 87.5t4 90.5q0 46 -4.5 88.5t-12.5 95.5h-164v-362z" />
    <glyph glyph-name="F" unicode="F" horiz-adv-x="582" 
d="M50 700h482v-163h-306v-112h219v-163h-219v-262h-176v700v0z" />
    <glyph glyph-name="G" unicode="G" 
d="M226 153q40 -17 86 -17t88 17v124h-75v138h250v-379q-23 -9 -46 -17t-48 -14q-81 -21 -170 -21t-170 21q-49 13 -91 30v665h525v-163h-350z" />
    <glyph glyph-name="H" unicode="H" 
d="M400 274q-41 -18 -88 -18q-45 0 -87 17v-273h-175v700h175v-276q42 -17 87 -17q23 0 45.5 5t42.5 13v275h175v-700h-175v274z" />
    <glyph glyph-name="I" unicode="I" horiz-adv-x="275" 
d="M50 700h175v-700h-175v700v0z" />
    <glyph glyph-name="J" unicode="J" horiz-adv-x="381" 
d="M156 700h175v-665q-42 -17 -85.5 -28.5t-89.5 -16.5q-42 -6 -86 -6q-5 0 -10 0.5t-10 0.5v152q5 -1 9.5 -1h9.5q45 0 87 17v547z" />
    <glyph glyph-name="K" unicode="K" 
d="M225 262v-262h-175v700h175v-263h60l115 263h175l-153 -351l153 -349h-175l-115 262h-60v0z" />
    <glyph glyph-name="L" unicode="L" horiz-adv-x="450" 
d="M400 0h-350v700h175v-525h175v-175v0z" />
    <glyph glyph-name="M" unicode="M" horiz-adv-x="800" 
d="M575 700h175v-700h-175v395l-175 -264l-175 264v-395h-175v700h175l175 -263l175 263v0z" />
    <glyph glyph-name="N" unicode="N" 
d="M400 0v131l-175 264v-395h-175v700h175l175 -263v263h175v0v-700h-175v0z" />
    <glyph glyph-name="O" unicode="O" 
d="M50 664q42 17 85.5 28.5t89.5 17.5q21 2 42.5 3.5t43.5 1.5q45 0 89 -6q91 -12 175 -47v-625q-84 -35 -175 -47q-44 -6 -89 -6q-22 0 -43.5 1.5t-42.5 3.5q-46 6 -89.5 17.5t-85.5 28.5v629zM225 152q43 -16 87 -16q46 0 88 17v393q-20 8 -42.5 13t-45.5 5q-45 0 -87 -17
v-395z" />
    <glyph glyph-name="P" unicode="P" horiz-adv-x="581" 
d="M50 700h263q45 0 85 -17t69.5 -47t46.5 -70t17 -85q0 -43 -15 -81t-41.5 -67t-62.5 -48t-77 -23h-110v-262h-175v700zM291 406q32 0 54.5 22.5t22.5 54.5t-22.5 54.5t-54.5 22.5h-66v-154h66z" />
    <glyph glyph-name="Q" unicode="Q" 
d="M400 547q-42 17 -88 17q-45 0 -87 -17v-395q42 -17 87 -17v-151h-2q-21 0 -42.5 1t-42.5 4q-46 5 -89.5 16.5t-85.5 28.5v631q42 17 85.5 28.5t89.5 16.5q21 3 42.5 4t42.5 1q23 0 45.5 -1t44.5 -4q91 -12 175 -47v-627q-84 -35 -175 -47v558z" />
    <glyph glyph-name="R" unicode="R" horiz-adv-x="615" 
d="M312 700q45 0 85 -17t70 -47t47 -70t17 -85q0 -54 -24 -100.5t-65 -76.5l133 -304h-175l-115 262h-60v-262h-175v700h262zM225 407h66q32 0 54.5 22t22.5 54t-22.5 54.5t-54.5 22.5h-66v-153z" />
    <glyph glyph-name="S" unicode="S" 
d="M225 134q20 -8 42.5 -13t45.5 -5q45 0 87 17v93l-350 123v317q42 17 85.5 28.5t89.5 16.5q21 3 42.5 4t43.5 1q23 0 45 -1t44 -4q91 -12 175 -47v-163h-175v65q-20 8 -42.5 13t-45.5 5q-45 0 -87 -17v-105l350 -123v-305q-82 -33 -175 -45q-21 -2 -42 -3.5t-43 -1.5
q-23 0 -45 1.5t-45 3.5q-46 6 -89.5 17t-85.5 28v165h175v-65z" />
    <glyph glyph-name="T" unicode="T" 
d="M575 700v-175h-175v-525h-175v525h-175v175h525v0z" />
    <glyph glyph-name="U" unicode="U" 
d="M225 153q42 -17 87 -17q46 0 88 17v547h175v-665q-42 -17 -85.5 -28t-89.5 -17q-44 -6 -90 -6q-43 0 -85 6q-46 5 -89.5 16.5t-85.5 28.5v665h175v-547z" />
    <glyph glyph-name="V" unicode="V" horiz-adv-x="649" 
d="M434 700h175l-219 -700h-131l-219 700h175l109 -437l110 437v0z" />
    <glyph glyph-name="W" unicode="W" horiz-adv-x="911" 
d="M390 0h-131v0l-219 700h175l109 -443l110 443h175l-73 -234l51 -209l109 443h175l-218 -700h-132v0l-64 215l-67 -215v0z" />
    <glyph glyph-name="X" unicode="X" 
d="M400 0l-87 225l-88 -225h-175l153 349l-153 351h175l88 -225l87 225h175l-153 -351l153 -349h-175v0z" />
    <glyph glyph-name="Y" unicode="Y" horiz-adv-x="679" 
d="M427 0h-175v262l-212 438h175l124 -263l125 263h175l-212 -438v-262v0v0z" />
    <glyph glyph-name="Z" unicode="Z" 
d="M50 0v175l319 361h-319v163h525v-176l-318 -360h318v-163h-525v0z" />
    <glyph glyph-name="zero" unicode="0" 
d="M50 700h525v-663q-84 -35 -175 -47q-45 -6 -90 -6q-43 0 -85 6q-47 5 -90 16.5t-85 28.5v665zM225 538v-385q40 -17 86 -17q47 0 89 17v385h-175z" />
    <glyph glyph-name="one" unicode="1" horiz-adv-x="407" 
d="M357 700v-700h-175v525h-132v175h307v0z" />
    <glyph glyph-name="two" unicode="2" 
d="M50 206l350 263v97q-42 17 -87 17q-23 0 -45.5 -5t-42.5 -13v-65h-175v163q84 35 175 47q43 6 90 6q43 0 85 -6q46 -5 89.5 -16.5t85.5 -28.5v-266l-337 -254h337v-145h-525v206z" />
    <glyph glyph-name="three" unicode="3" 
d="M225 135q20 -8 42.5 -13t45.5 -5q45 0 87 17l-1 146h-150v152h150l1 134q-43 16 -87 16q-46 0 -88 -17v-44h-175v142q42 17 85 29t90 17q43 6 89 6q22 0 43.5 -1t42.5 -4q46 -5 89.5 -16.5t85.5 -28.5v-630q-42 -17 -85.5 -28.5t-89.5 -16.5q-42 -6 -86 -6q-46 0 -89 6
q-47 6 -90 17t-85 28v145h175v-45z" />
    <glyph glyph-name="four" unicode="4" horiz-adv-x="626" 
d="M400 0v219h-350v481h175v-306h175v306h176v-700h-176v0z" />
    <glyph glyph-name="five" unicode="5" 
d="M50 700h525v-157h-350v-106h350v-402q-42 -17 -85.5 -28.5t-89.5 -16.5q-42 -6 -85 -6q-47 0 -90 6q-91 12 -175 47v163h175v-65q20 -8 42.5 -13t45.5 -5q45 0 87 17v153h-350v413z" />
    <glyph glyph-name="six" unicode="6" 
d="M50 700h175v-259h350v-406q-42 -17 -85.5 -28.5t-89.5 -17.5q-21 -2 -42.5 -3.5t-42.5 -1.5q-47 0 -90 6q-46 6 -89.5 17t-85.5 28v665zM313 117q45 0 87 17l-1 155h-174v-154q40 -18 88 -18z" />
    <glyph glyph-name="seven" unicode="7" 
d="M400 544h-350v156h525v-200l-319 -500h-206l350 544v0z" />
    <glyph glyph-name="eight" unicode="8" horiz-adv-x="626" 
d="M576 700v-665q-83 -34 -176 -46q-20 -2 -41.5 -3.5t-43.5 -1.5q-45 0 -90 6q-46 6 -89.5 17t-85.5 28v665h526zM225 553v-145h175v145h-175zM400 271h-175v-137q43 -17 89 -17t86 17v137z" />
    <glyph glyph-name="nine" unicode="9" horiz-adv-x="624" 
d="M574 -1h-175v231q-44 -6 -88 -6q-22 0 -43.5 1.5t-41.5 3.5q-47 6 -90.5 17t-85.5 28v425h524v-700zM312 384q44 0 87 16v146h-173v-146q20 -8 41.5 -12t44.5 -4z" />
    <glyph glyph-name="colon" unicode=":" horiz-adv-x="275" 
d="M225 64h-175v175h175v-175v0zM225 420h-175v175h175v-175v0z" />
    <glyph glyph-name="semicolon" unicode=";" horiz-adv-x="294" 
d="M82 240q0 -63 -11 -123t-31 -116h162q20 56 31 116t11 123h-162zM244 421h-175v175h175v-175z" />
    <glyph glyph-name="question" unicode="?" 
d="M400 0h-175v175h175v-175zM400 710q46 -5 89.5 -16.5t85.5 -28.5v-402h-350v139h175v164q-42 17 -87 17q-23 0 -45.5 -5t-42.5 -13v-9v-56h-175v163q84 35 175 47q43 6 90 6q43 0 85 -6z" />
    <glyph glyph-name="exclam" unicode="!" horiz-adv-x="276" 
d="M226 0h-176v175h176v-175v0zM226 262h-176v438h176v-438v0z" />
    <glyph glyph-name="comma" unicode="," horiz-adv-x="322" 
d="M272 177q0 -136 -46 -260h-176q22 61 34 126t12 134h176z" />
    <glyph glyph-name="period" unicode="." horiz-adv-x="276" 
d="M225 0h-175l1 176h175z" />
    <glyph glyph-name="parenleft" unicode="(" horiz-adv-x="355" 
d="M225 350q0 -115 20 -223.5t57 -210.5h-175q-37 102 -57 210.5t-20 223.5q0 117 21 227.5t59 213.5h175q-38 -103 -59 -213.5t-21 -227.5z" />
    <glyph glyph-name="parenright" unicode=")" horiz-adv-x="354" 
d="M129 350q0 117 -20.5 227.5t-58.5 213.5h175q38 -103 58.5 -213.5t20.5 -227.5q0 -115 -19.5 -223.5t-56.5 -210.5h-175q37 102 56.5 210.5t19.5 223.5z" />
    <glyph glyph-name="quotedblleft" unicode="&#x201c;" horiz-adv-x="582" 
d="M309 530q0 137 46 261h177q-46 -124 -46 -261h-177zM50 530q0 69 12 134.5t34 126.5h177q-46 -124 -46 -261h-177z" />
    <glyph glyph-name="quotedblright" unicode="&#x201d;" horiz-adv-x="582" 
d="M273 792q0 -137 -46 -261h-177q46 124 46 261h177zM532 792q0 -137 -46 -261h-177q46 124 46 261h177z" />
    <glyph glyph-name="A" unicode="A" horiz-adv-x="693" 
d="M478 0l-35 133q-45 -16 -97 -16q-51 0 -96 15l-35 -132h-175l219 700h175l219 -700h-175zM286 274q28 -9 60 -9q16 0 31.5 2.5t29.5 7.5l-60 262z" />
    <glyph glyph-name="dollar" unicode="$" 
d="M227 -11h-2q-46 6 -89.5 17t-85.5 28v165h175v-65q20 -8 42.5 -13t45.5 -5q45 0 87 17v93l-350 123v317q42 17 85.5 28.5t89.5 16.5h2v48h176v-48h-3q91 -12 175 -47v-163h-175v65q-20 8 -42.5 13t-45.5 5q-45 0 -87 -17v-105l350 -123v-305q-82 -33 -175 -45h3v-48h-176
v48z" />
    <glyph glyph-name="E" unicode="E" horiz-adv-x="581" 
d="M531 537h-307v-100h222v-156h-222v-132q34 -3 65 -3q65 0 125 11.5t117 32.5v-162q-57 -21 -117 -32.5t-125 -11.5q-63 0 -123 11t-116 31v674h481v-163z" />
    <glyph glyph-name="Euro" unicode="&#x20ac;" horiz-adv-x="669" 
d="M312 538v-60h175v-106h-175v-49h175v-106h-175v-67q31 -3 64 -3q64 0 125 11t118 32v-162q-57 -21 -118 -32t-125 -11q-63 0 -123 11t-116 31v190h-87v106h87v49h-87v106h87v222h482v-162h-307z" />
    <glyph glyph-name="space" unicode=" " horiz-adv-x="480" 
 />
    <glyph glyph-name="quoteleft" unicode="&#x2018;" horiz-adv-x="323" 
d="M50 530q0 69 12 134.5t34 126.5h177q-46 -124 -46 -261h-177z" />
    <glyph glyph-name="quoteright" unicode="&#x2019;" horiz-adv-x="323" 
d="M273 792q0 -137 -46 -261h-177q46 124 46 261h177z" />
    <glyph glyph-name="quotesingle" unicode="'" horiz-adv-x="323" 
d="M273 792q0 -137 -46 -261h-177q46 124 46 261h177z" />
    <glyph glyph-name="quotedbl" unicode="&#x22;" horiz-adv-x="582" 
d="M273 792q0 -137 -46 -261h-177q46 124 46 261h177zM532 792q0 -137 -46 -261h-177q46 124 46 261h177z" />
    <glyph glyph-name="grave" unicode="`" horiz-adv-x="323" 
d="M273 792q0 -137 -46 -261h-177q46 124 46 261h177z" />
    <glyph glyph-name="acute" unicode="&#xb4;" horiz-adv-x="323" 
d="M273 792q0 -137 -46 -261h-177q46 124 46 261h177z" />
    <glyph glyph-name="hyphen" unicode="-" horiz-adv-x="452" 
d="M402 214h-352v176h352v-176z" />
    <glyph glyph-name="a" unicode="a" horiz-adv-x="693" 
d="M478 0l-35 133q-45 -16 -97 -16q-51 0 -96 15l-35 -132h-175l219 700h175l219 -700h-175zM286 274q28 -9 60 -9q16 0 31.5 2.5t29.5 7.5l-60 262z" />
    <glyph glyph-name="b" unicode="b" 
d="M356 700q41 0 77 -15.5t62.5 -42t42 -62.5t15.5 -77q0 -43 -17 -80t-46 -64q38 -27 61.5 -69t23.5 -93q0 -38 -13.5 -72t-37 -60.5t-55.5 -43.5t-69 -21h-350v700h306zM387 219q0 34 -23.5 57.5t-57.5 23.5h-81v-163h81q34 0 57.5 24t23.5 58zM367 498q0 29 -21 50
t-50 21h-71v-143h71q29 0 50 21t21 51z" />
    <glyph glyph-name="c" unicode="c" horiz-adv-x="581" 
d="M50 700h481v-163h-306v-388q31 -3 64 -3q128 0 242 44v-162q-57 -21 -117.5 -32.5t-124.5 -11.5q-63 0 -123 11t-116 31v674z" />
    <glyph glyph-name="d" unicode="d" 
d="M50 0v700h455q34 -82 52 -170.5t18 -182.5q0 -93 -17.5 -179.5t-49.5 -167.5h-458zM219 175h165q8 42 12 87.5t4 90.5q0 46 -4.5 88.5t-12.5 95.5h-164v-362z" />
    <glyph glyph-name="e" unicode="e" horiz-adv-x="581" 
d="M531 537h-307v-100h222v-156h-222v-132q34 -3 65 -3q65 0 125 11.5t117 32.5v-162q-57 -21 -117 -32.5t-125 -11.5q-63 0 -123 11t-116 31v674h481v-163z" />
    <glyph glyph-name="f" unicode="f" horiz-adv-x="582" 
d="M532 700v-163h-306v-112h219v-163h-219v-262h-176v700h482z" />
    <glyph glyph-name="g" unicode="g" 
d="M226 153q40 -17 86 -17t88 17v124h-75v138h250v-379q-23 -9 -46 -17t-48 -14q-81 -21 -170 -21t-170 21q-49 13 -91 30v665h525v-163h-350z" />
    <glyph glyph-name="h" unicode="h" 
d="M400 274q-41 -18 -88 -18q-45 0 -87 17v-273h-175v700h175v-276q42 -17 87 -17q23 0 45.5 5t42.5 13v275h175v-700h-175v274z" />
    <glyph glyph-name="i" unicode="i" horiz-adv-x="275" 
d="M225 700v-700h-175v700h175z" />
    <glyph glyph-name="j" unicode="j" horiz-adv-x="381" 
d="M156 700h175v-665q-42 -17 -85.5 -28.5t-89.5 -16.5q-42 -6 -86 -6q-5 0 -10 0.5t-10 0.5v152q5 -1 9.5 -1h9.5q45 0 87 17v547z" />
    <glyph glyph-name="k" unicode="k" 
d="M225 0h-175v700h175v-263h60l115 263h175l-153 -351l153 -349h-175l-115 262h-60v-262z" />
    <glyph glyph-name="l" unicode="l" horiz-adv-x="450" 
d="M50 0v700h175v-525h175v-175h-350z" />
    <glyph glyph-name="m" unicode="m" horiz-adv-x="800" 
d="M750 700v-700h-175v395l-175 -264l-175 264v-395h-175v700h175l175 -263l175 263h175z" />
    <glyph glyph-name="n" unicode="n" 
d="M400 131l-175 264v-395h-175v700h175l175 -263v263h175v0v-700h-175v131z" />
    <glyph glyph-name="o" unicode="o" 
d="M50 664q42 17 85.5 28.5t89.5 17.5q21 2 42.5 3.5t43.5 1.5q45 0 89 -6q91 -12 175 -47v-625q-84 -35 -175 -47q-44 -6 -89 -6q-22 0 -43.5 1.5t-42.5 3.5q-46 6 -89.5 17.5t-85.5 28.5v629zM225 152q43 -16 87 -16q46 0 88 17v393q-20 8 -42.5 13t-45.5 5q-45 0 -87 -17
v-395z" />
    <glyph glyph-name="p" unicode="p" horiz-adv-x="581" 
d="M50 700h263q45 0 85 -17t69.5 -47t46.5 -70t17 -85q0 -43 -15 -81t-41.5 -67t-62.5 -48t-77 -23h-110v-262h-175v700zM291 406q32 0 54.5 22.5t22.5 54.5t-22.5 54.5t-54.5 22.5h-66v-154h66z" />
    <glyph glyph-name="q" unicode="q" 
d="M400 547q-42 17 -88 17q-45 0 -87 -17v-395q42 -17 87 -17v-151h-2q-21 0 -42.5 1t-42.5 4q-46 5 -89.5 16.5t-85.5 28.5v631q42 17 85.5 28.5t89.5 16.5q21 3 42.5 4t42.5 1q23 0 45.5 -1t44.5 -4q91 -12 175 -47v-627q-84 -35 -175 -47v558z" />
    <glyph glyph-name="r" unicode="r" horiz-adv-x="615" 
d="M312 700q45 0 85 -17t70 -47t47 -70t17 -85q0 -54 -24 -100.5t-65 -76.5l133 -304h-175l-115 262h-60v-262h-175v700h262zM225 407h66q32 0 54.5 22t22.5 54t-22.5 54.5t-54.5 22.5h-66v-153z" />
    <glyph glyph-name="s" unicode="s" 
d="M225 134q20 -8 42.5 -13t45.5 -5q45 0 87 17v93l-350 123v317q42 17 85.5 28.5t89.5 16.5q21 3 42.5 4t43.5 1q23 0 45 -1t44 -4q91 -12 175 -47v-163h-175v65q-20 8 -42.5 13t-45.5 5q-45 0 -87 -17v-105l350 -123v-305q-82 -33 -175 -45q-21 -2 -42 -3.5t-43 -1.5
q-23 0 -45 1.5t-45 3.5q-46 6 -89.5 17t-85.5 28v165h175v-65z" />
    <glyph glyph-name="t" unicode="t" 
d="M575 525h-175v-525h-175v525h-175v175h525v-175z" />
    <glyph glyph-name="u" unicode="u" 
d="M225 153q42 -17 87 -17q46 0 88 17v547h175v-665q-42 -17 -85.5 -28t-89.5 -17q-44 -6 -90 -6q-43 0 -85 6q-46 5 -89.5 16.5t-85.5 28.5v665h175v-547z" />
    <glyph glyph-name="v" unicode="v" horiz-adv-x="649" 
d="M609 700l-219 -700h-131l-219 700h175l109 -437l110 437h175z" />
    <glyph glyph-name="w" unicode="w" horiz-adv-x="911" 
d="M259 0v0l-219 700h175l109 -443l110 443h175l-73 -234l51 -209l109 443h175l-218 -700h-132v0l-64 215l-67 -215h-131z" />
    <glyph glyph-name="x" unicode="x" 
d="M313 225l-88 -225h-175l153 349l-153 351h175l88 -225l87 225h175l-153 -351l153 -349h-175z" />
    <glyph glyph-name="y" unicode="y" horiz-adv-x="679" 
d="M252 0v262l-212 438h175l124 -263l125 263h175l-212 -438v-262h-175z" />
    <glyph glyph-name="z" unicode="z" 
d="M50 175l319 361h-319v163h525v-176l-318 -360h318v-163h-525v175z" />
  </font>
</defs>
</svg>
