<?xml version="1.0" encoding="UTF-8" standalone="no"?>
<svg
   xmlns:dc="http://purl.org/dc/elements/1.1/"
   xmlns:cc="http://creativecommons.org/ns#"
   xmlns:rdf="http://www.w3.org/1999/02/22-rdf-syntax-ns#"
   xmlns:svg="http://www.w3.org/2000/svg"
   xmlns="http://www.w3.org/2000/svg"
   xmlns:sodipodi="http://sodipodi.sourceforge.net/DTD/sodipodi-0.dtd"
   xmlns:inkscape="http://www.inkscape.org/namespaces/inkscape"
   version="1.1"
   x="0px"
   y="0px"
   viewBox="0 0 60.525142 69.392777"
   enable-background="new 0 0 100 100"
   xml:space="preserve"
   id="svg4843"
   inkscape:version="0.48.4 r9939"
   width="100%"
   height="100%"
   sodipodi:docname="btn-circle.svg"><metadata
     id="metadata4859"><rdf:RDF><cc:Work
         rdf:about=""><dc:format>image/svg+xml</dc:format><dc:type
           rdf:resource="http://purl.org/dc/dcmitype/StillImage" /><dc:title></dc:title></cc:Work></rdf:RDF></metadata><defs
     id="defs4857" /><sodipodi:namedview
     pagecolor="#ffffff"
     bordercolor="#666666"
     borderopacity="1"
     objecttolerance="10"
     gridtolerance="10"
     guidetolerance="10"
     inkscape:pageopacity="0"
     inkscape:pageshadow="2"
     inkscape:window-width="2560"
     inkscape:window-height="1031"
     id="namedview4855"
     showgrid="false"
     fit-margin-top="0"
     fit-margin-left="0"
     fit-margin-right="0"
     fit-margin-bottom="0"
     showguides="true"
     inkscape:guide-bbox="true"
     inkscape:zoom="5.3400704"
     inkscape:cx="115.73223"
     inkscape:cy="39.968086"
     inkscape:window-x="0"
     inkscape:window-y="25"
     inkscape:window-maximized="1"
     inkscape:current-layer="svg4843" /><g
     id="g4897"
     transform="translate(-18.519598,-11.732223)"><g
       id="g4892"><g
         id="g4845"><g
           id="g4847"><path
             style="fill-rule:evenodd;fill:#fff;fill-opacity:1"
             d="m 48.3125,11.75 c -0.413176,0.02366 -0.822,0.087 -1.25,0.15625 -3.599,0.581 -6.63175,3.75 -7.09375,7.375 -0.46,3.619 1.32375,6.998 4.59375,8.75 0.253,0.136 0.58375,0.4475 0.59375,0.6875 0.057,1.311 0,2.60875 0,4.09375 -8.167,0 -6.13475,0.002 -14.09375,0 l 0,4.8125 13.875,0 0.3125,0 c -0.163504,7.644415 -0.327706,19.379356 -0.5,26.28125 -0.03927,1.595175 -1.2e-4,3.203236 -0.21875,4.78125 -0.24808,1.797205 -1.71186,2.761361 -3.75,2.53125 -3.38649,-0.382218 -6.33164,-1.639415 -8.625,-3.875 C 30.65711,65.882741 30.75174,63.780529 32.25,62.3125 32.42847,62.137772 32.60281,61.976991 32.84375,61.75 27.27277,60.036259 23.36658,56.527572 19.5,52.65625 c -0.31322,1.037449 -0.66258,1.877919 -0.8125,2.75 -0.82007,4.749644 1.49344,8.736565 4.125,12.65625 0.13564,-0.07333 0.19555,-0.11257 0.28125,-0.15625 1.24841,-0.627929 2.18707,-0.476557 3,0.53125 2.00691,2.492218 4.40608,4.637078 7.28125,6.375 2.87339,1.735582 6.05542,2.856175 9.34375,3.8125 2.1238,0.616229 4.37329,1.045231 6.09375,2.5 1.21628,-1.095952 2.77767,-1.567128 4.34375,-2.03125 1.01818,-0.301094 2.04164,-0.580926 3.0625,-0.875 6.33751,-1.815146 11.49232,-5.032483 15.3125,-9.84375 0.6773,-0.854141 1.61132,-1.057091 2.6875,-0.59375 0.19007,0.08268 0.37423,0.149376 0.59375,0.25 0.67819,-1.107652 1.36463,-2.140739 1.96875,-3.21875 1.42509,-2.54292 2.3901,-5.183384 2.25,-8.0625 -0.06514,-1.364284 -0.34861,-2.671597 -1.0625,-4 -3.76128,3.783178 -7.70581,7.282359 -13.28125,9 0.257,0.237911 0.44652,0.387771 0.625,0.5625 1.47417,1.442288 1.57865,3.544452 0.125,5 -0.6657,0.666152 -1.46744,1.264818 -2.3125,1.75 -1.93374,1.112333 -3.9799,2.015112 -6.34375,2.1875 -1.98995,0.145087 -3.35023,-0.76515 -3.75,-2.46875 -0.07939,-0.341656 -0.116,-0.683354 -0.125,-1.03125 -0.204465,-8.201035 -0.429275,-21.33582 -0.625,-30.21875 l 0.5625,0 13.8125,0 0,-4.75 -2,0 -12.125,0 c 0,-1.199 0.078,-2.3295 0,-3.4375 C 52.47825,28.59975 52.684,28.238 53.375,27.875 58.127,25.387 59.276,18.94525 55.75,14.90625 53.71125,12.57175 51.20473,11.584352 48.3125,11.75 z m 0.625,5.53125 c 1.711,0.037 3.0745,1.406 3.0625,3.125 -0.012,1.749 -1.4295,3.143 -3.1875,3.125 -1.75,-0.018 -3.12475,-1.46275 -3.09375,-3.21875 0.033,-1.747 1.45075,-3.06825 3.21875,-3.03125 z"
             id="path4849"
             inkscape:connector-curvature="0" /></g></g></g><g
       id="g4889" /></g></svg>